<?xml version="1.0" encoding="utf-8"?>
<!-- Generator: Adobe Illustrator 17.0.2, SVG Export Plug-In . SVG Version: 6.00 Build 0)  -->
<!DOCTYPE svg PUBLIC "-//W3C//DTD SVG 1.1//EN" "http://www.w3.org/Graphics/SVG/1.1/DTD/svg11.dtd">
<svg version="1.1" id="Layer_1" xmlns="http://www.w3.org/2000/svg" xmlns:xlink="http://www.w3.org/1999/xlink" x="0px" y="0px"
	 width="59.75px" height="65.5px" viewBox="0 0 59.75 65.5" enable-background="new 0 0 59.75 65.5" xml:space="preserve">
<g id="_x31_">
	<g>
		<path fill="#FF0000" d="M25.4,27.548c0,0,0.476,14.051-1.429,20.481s-4.048,14.05,3.334,13.098
			c7.382-0.953,15.003,2.857,15.003-7.859s-1.667-26.91-1.667-34.054s1.905-14.288-6.668-13.335
			c-8.573,0.951-9.614,1.19-11.832,4.762s-10.79,9.525-14.839,12.621s-2.857,10.241,0,12.384c2.857,2.143,6.43,2.382,9.525,0
			S25.4,27.548,25.4,27.548z"/>
		<g>
			<path d="M24.875,27.548c0.259,8.228-0.334,16.059-2.443,24.019c-0.6,2.265-1.783,6.558,0.073,8.61
				c2.299,2.541,6.153,1.27,9.194,1.32c2.567,0.042,6.312,0.655,8.515-1.118c2.947-2.37,2.644-6.341,2.587-9.782
				C42.614,39.303,40.846,28,41.223,16.704c0.091-2.721,0.891-7.242-1.175-9.537c-2.692-2.991-7.137-1.732-10.636-1.261
				c-2.666,0.358-4.983,0.901-6.74,3.024c-3.611,4.363-7.337,7.671-11.922,11.102c-3.106,2.324-5.789,3.895-6.506,7.944
				c-0.505,2.853,0.576,6.097,2.685,8.04c6.72,6.196,14.665-3.759,18.841-8.097c0.469-0.488-0.272-1.231-0.742-0.742
				c-4.585,4.764-16.083,16.534-19.575,4.151c-2.133-7.563,9.624-12.941,14.373-17.273c1.778-1.622,2.822-3.718,4.501-5.383
				c2.404-2.384,7.975-2.168,11.051-2.355c7.228-0.44,4.719,14.674,4.978,19.403c0.429,7.829,1.096,15.64,1.359,23.478
				c0.138,4.128,0.867,9.955-4.281,11.154c-2.843,0.662-6.12,0.002-9.022,0.14c-9.812,0.467-3.626-12.252-2.954-17.773
				c0.609-5.002,0.624-10.137,0.466-15.17C25.904,26.873,24.854,26.871,24.875,27.548z"/>
		</g>
	</g>
</g>
</svg>
