<?xml version="1.0" encoding="utf-8"?>
<!-- Generator: Adobe Illustrator 17.0.2, SVG Export Plug-In . SVG Version: 6.00 Build 0)  -->
<!DOCTYPE svg PUBLIC "-//W3C//DTD SVG 1.1//EN" "http://www.w3.org/Graphics/SVG/1.1/DTD/svg11.dtd">
<svg version="1.1" id="Layer_1" xmlns="http://www.w3.org/2000/svg" xmlns:xlink="http://www.w3.org/1999/xlink" x="0px" y="0px"
	 width="59.75px" height="65.5px" viewBox="0 0 59.75 65.5" enable-background="new 0 0 59.75 65.5" xml:space="preserve">
<g id="_x32_">
	<g>
		<path fill="#FF0000" d="M32.98,19.255c0,0,4.895,3.68,1.084,9.396c-3.81,5.715-5.788,9.507-8.407,10.936
			c-2.62,1.429-5.715,4.287-7.382,4.525c-1.667,0.238-7.383,4.524-4.525,10.716s5.756,3.334,10.618,3.334s10.815-1.542,17.245,0.658
			s14.807,2.055,14.62-7.716c-0.131-6.872-12.996-6.219-17.283-5.267c6.43-4.287,10.045-13.632,10.76-19.586
			S51.376,9.343,39.47,6.485c-11.907-2.857-20.15-2.143-26.507,7.859c-6.356,10.002,2.687,15.89,6.717,14.864
			c4.976-1.267,3.992-3.025,5.978-9.148C26.828,16.45,32.076,18.35,32.98,19.255z"/>
		<g>
			<path d="M32.609,19.626c5.895,4.744-2.014,14.613-5.943,18.578c-3.468,3.5-9.713,4.259-12.499,8.348
				c-2.655,3.898-1.94,8.463,1.393,11.78c1.181,1.175,3.04,1.054,4.529,0.866c3.33-0.42,6.637-0.599,9.986-0.869
				c4.28-0.345,8.261-0.002,12.376,1.308c2.303,0.734,4.741,0.974,7.14,0.756c3.597-0.328,6.529-3.019,6.977-6.64
				c1.223-9.878-10.711-9.835-17.757-8.423c0.135,0.32,0.27,0.64,0.405,0.96c8.624-6.267,12.468-18.389,11.153-28.746
				C48.891,5.904,34.799,3.389,25.096,4.851c-8.04,1.212-20.26,13.818-12.751,21.792c2.696,2.863,5.836,3.847,9.507,2.378
				c1.077-0.431,2.021-1.342,2.444-2.428c0.467-1.199,0.763-2.434,1.081-3.68c0.898-3.524,4.497-5.336,7.338-3.206
				c0.542,0.407,1.065-0.506,0.53-0.907c-1.448-1.085-4.166-1.965-5.926-1.132c-2.896,1.371-2.924,5.159-3.749,7.911
				c-2.124,7.078-10.773,1.456-12.08-2.849C9.423,15.923,17.522,8.422,23.203,6.4c5.107-1.817,11.04-0.58,16.127,0.591
				c5.935,1.366,9.361,5.614,10.108,11.497c1.216,9.584-2.889,21.181-10.753,26.896c-0.481,0.349-0.197,1.08,0.405,0.96
				c3.899-0.781,8.038-0.816,11.909,0.116c4.227,1.018,5.203,4.371,4.27,8.277c-0.861,3.605-4.428,4.663-7.627,4.709
				c-4.888,0.07-9.453-2.305-14.444-2.327c-4.992-0.022-9.938,1.014-14.891,1.174c-2.486-0.868-4.008-2.534-4.564-4.998
				c-0.939-2.551,0.317-5.025,1.901-6.862c1.252-1.452,3.028-1.764,4.63-2.619c3.391-1.81,6.899-4.264,9.243-7.334
				c3.461-4.534,10.104-12.55,3.834-17.596C32.829,18.464,32.082,19.202,32.609,19.626z"/>
		</g>
	</g>
</g>
</svg>
