<?xml version="1.0" encoding="utf-8"?>
<!-- Generator: Adobe Illustrator 17.0.2, SVG Export Plug-In . SVG Version: 6.00 Build 0)  -->
<!DOCTYPE svg PUBLIC "-//W3C//DTD SVG 1.1//EN" "http://www.w3.org/Graphics/SVG/1.1/DTD/svg11.dtd">
<svg version="1.1" id="Layer_1" xmlns="http://www.w3.org/2000/svg" xmlns:xlink="http://www.w3.org/1999/xlink" x="0px" y="0px"
	 width="59.75px" height="65.5px" viewBox="0 0 59.75 65.5" enable-background="new 0 0 59.75 65.5" xml:space="preserve">
<g id="_x33_">
	<g>
		<path fill="#FF0000" d="M28.297,17.126c2.838-3.176,9.319,2.353,8.143,6.333c-1.176,3.981-3.619,3.257-5.972,3.891
			c-2.352,0.633-4.524,2.985-3.529,6.152c0.996,3.167,2.986,5.249,5.881,6.696s4.718,7.871-1.17,9.319
			c-5.888,1.448-7.335,0.09-8.783-2.443c-1.448-2.533-4.252-6.695-10.586-3.348c-6.333,3.348-2.986,12.848,5.157,15.472
			s28.501,7.057,32.934-6.695s-0.815-19-7.058-19.453c6.153-3.348,12.848-13.029,5.067-21.172S33.271,1.201,23.952,4.187
			s-11.219,10.496-9.138,14.115C16.897,21.921,24.498,21.379,28.297,17.126z"/>
		<g>
			<path d="M28.669,17.497c4.527-3.695,11.987,7.581,3.421,9.031c-1.402,0.237-3.159,0.469-4.174,1.623
				c-2.462,2.8-2.03,6.439,0.474,9.231c1.566,1.747,3.537,2.528,5.216,4.082c4.898,4.536-2.204,7.967-6.174,8.116
				c-4.361,0.164-4.741-6.292-8.773-7.296c-7.288-1.815-12.012,4.806-9.043,11.178c3.185,6.835,13.156,8.051,19.711,8.828
				c7.293,0.865,15.659-0.014,20.124-6.527c3.525-5.142,5.406-17.088-0.69-21.318c-1.171-0.813-2.33-1.317-3.704-1.674
				c-2.115-0.55-0.285,0.021-0.501,0.15c0.691-0.411,1.408-1.029,2.028-1.53c3.514-2.841,5.642-7.116,5.838-11.588
				c0.406-9.265-12.249-16.549-20.158-17.317C24.381,1.72,13.753,6.477,13.531,15.404C13.318,23.953,24.862,21.239,28.669,17.497
				c0.483-0.475-0.259-1.217-0.742-0.742c-4.593,4.515-15.056,4.907-13.023-3.806c1.569-6.723,10.104-9.19,16.039-9.446
				c6.835-0.294,12.538,4.162,17.07,8.746c6.752,6.829,2.053,16.17-4.961,20.347c-0.482,0.287-0.23,0.925,0.265,0.978
				c10.367,1.11,9.001,13.685,5.75,20.736c-3.353,7.272-12.933,7.585-19.74,6.93c-6.66-0.641-15.132-2.16-18.804-8.308
				c-4.33-7.251,6.177-13.444,11.046-6.955c1.257,1.676,1.792,3.304,3.762,4.263c2.869,1.396,9.666,0.072,10.488-3.587
				c0.429-1.912,0.091-3.523-0.895-5.203c-0.274-0.467-0.774-1.03-1.235-1.324c-2.907-1.85-4.97-3.392-6.242-6.765
				c-2.174-5.765,5.958-5.268,8.267-7.334c1.567-1.402,1.541-3.785,0.963-5.586c-1.104-3.44-5.699-6.178-8.75-3.688
				C27.401,17.183,28.149,17.922,28.669,17.497z"/>
		</g>
	</g>
</g>
</svg>
