<?xml version="1.0" encoding="utf-8"?>
<!-- Generator: Adobe Illustrator 17.0.2, SVG Export Plug-In . SVG Version: 6.00 Build 0)  -->
<!DOCTYPE svg PUBLIC "-//W3C//DTD SVG 1.1//EN" "http://www.w3.org/Graphics/SVG/1.1/DTD/svg11.dtd">
<svg version="1.1" id="Layer_1" xmlns="http://www.w3.org/2000/svg" xmlns:xlink="http://www.w3.org/1999/xlink" x="0px" y="0px"
	 width="59.75px" height="65.5px" viewBox="0 0 59.75 65.5" enable-background="new 0 0 59.75 65.5" xml:space="preserve">
<g id="_x34_">
	<g>
		<path fill="#FF0000" d="M54.75,35.589c-1.267-1.176-1.447-1.085-8.686-1.002c0-4.26-0.543-9.854-0.362-21.798
			c0.181-11.943-9.862-8.686-10.477-8.595L33.9,4.969C32.652,6.035,10.778,27.446,3.087,36.042
			c-2.624,8.505,2.262,12.305,5.067,13.752s12.033,1.538,20.267,1.357c-0.09,1.629-0.453,1.99-0.453,8.415
			c1.085,4.795,10.677,4.162,13.481,2.443c2.805-1.719,1.476-7.596,1.837-13.658c3.166-0.091,4.768-0.547,10.196-0.547
			S56.017,36.765,54.75,35.589z M33.428,36.835c0,0-11.778,0.174-12.738,0s-1.832-0.96-2.094-1.658s0.436-2.792,0.873-3.141
			c0.436-0.349,9.345-9.233,10.031-9.685c3.052-2.007,4.19,0,4.626,1.134C34.562,24.62,33.428,36.835,33.428,36.835z"/>
		<g>
			<path d="M55.121,35.218c-1.632-1.459-3.67-1.204-5.76-1.195c-3.211,0.014-2.767-0.58-2.871-3.403
				c-0.095-2.606-0.193-5.211-0.25-7.819c-0.122-5.553,2.377-18.391-6.12-19.485c-4.026-0.518-6.182,0.85-8.931,3.509
				c-6.534,6.321-12.972,12.747-19.34,19.235c-2.914,2.968-5.807,5.959-8.612,9.031c-2.319,2.54-1.579,7.397-0.345,10.287
				c3.394,7.948,15.516,6.401,22.2,6.353c2.607-0.019,2.793-0.565,2.544,1.829c-0.175,1.68-0.715,4.598-0.174,6.145
				c0.924,2.64,3.388,3.788,6.096,4.001c2.336,0.184,6.31,0.339,8.263-1.327c3.234-2.759,1.922-8.689,1.93-12.383
				c0.006-3.003,10.974,0.019,12.923-3.841C58.104,43.326,57.061,37.638,55.121,35.218c-0.423-0.528-1.161,0.22-0.742,0.742
				c1.771,2.21,2.03,6.42,1.564,9.06c-0.578,3.278-9.905,2.689-12.656,2.806c-0.294,0.012-0.514,0.23-0.525,0.525
				c-0.113,3.039,0.054,6.072-0.028,9.11c-0.129,4.826-4.417,5.331-8.159,5.276c-6.944-0.102-6.008-6.57-5.629-11.585
				c0.021-0.282-0.255-0.53-0.525-0.525c-6.289,0.122-13.377,0.74-19.483-1.067C2.046,47.52,1.52,38.456,5.764,33.901
				c6.85-7.352,14.027-14.41,21.184-21.46c3.717-3.661,6.855-8.479,12.535-8.157c7.689,0.435,5.627,12.024,5.684,17.095
				c0.049,4.404,0.343,8.803,0.373,13.207c0.002,0.284,0.237,0.528,0.525,0.525c2.306-0.028,6.41-0.854,8.314,0.849
				C54.882,36.41,55.627,35.67,55.121,35.218z"/>
			<path d="M33.428,36.31c-3.65,0.053-7.303,0.103-10.953,0.068c-2.529-0.024-4.614-2.076-2.285-4.296
				c1.466-1.398,2.897-2.835,4.343-4.254c1.47-1.442,2.938-2.886,4.435-4.3c1.159-1.096,3.505-2.052,4.532-0.181
				c0.372,0.677,0.202,1.713,0.184,2.447c-0.089,3.684-0.442,7.373-0.781,11.041c-0.062,0.674,0.988,0.668,1.05,0
				c0.192-2.081,0.36-4.165,0.512-6.249c0.163-2.228,0.734-5.035,0.167-7.239c-1.63-6.336-8.603,1.546-10.384,3.29
				c-1.855,1.816-9.523,7.494-4.735,10.299c1.848,1.082,4.942,0.505,6.954,0.495c2.32-0.011,4.641-0.037,6.961-0.071
				C34.105,37.35,34.106,36.3,33.428,36.31z"/>
		</g>
	</g>
</g>
</svg>
