<?xml version="1.0" encoding="utf-8"?>
<!-- Generator: Adobe Illustrator 17.0.2, SVG Export Plug-In . SVG Version: 6.00 Build 0)  -->
<!DOCTYPE svg PUBLIC "-//W3C//DTD SVG 1.1//EN" "http://www.w3.org/Graphics/SVG/1.1/DTD/svg11.dtd">
<svg version="1.1" id="Layer_1" xmlns="http://www.w3.org/2000/svg" xmlns:xlink="http://www.w3.org/1999/xlink" x="0px" y="0px"
	 width="59.75px" height="65.5px" viewBox="0 0 59.75 65.5" enable-background="new 0 0 59.75 65.5" xml:space="preserve">
<g id="_x35_">
	<g>
		<path fill="#FF0000" d="M23.995,35.813c0.79-0.277,7.583-2.182,7.583,4.882s-3.221,9.972-10.284,6.025
			c-7.064-3.947-11.634,1.04-10.803,5.09c0.831,4.051,6.025,11.53,17.036,11.115c11.011-0.416,22.646-6.129,23.061-18.594
			c0.416-12.465-5.914-16.829-20.097-16.621c-0.367-5.817,0.178-6.024,0.009-8.622c6.999,0.104,13.959,0,16.452,0
			c2.493,0,4.778-7.999,1.662-10.596s-6.657-1.704-11.027-1.843c-2.491-0.08-13.484-0.772-17.331-0.546
			c-2.295,0.135-4.467-0.624-4.467,6.856s-0.312,17.659-0.104,20.048C15.892,35.397,18.074,37.89,23.995,35.813z"/>
		<g>
			<path d="M24.134,36.319c1.373-0.434,2.751-0.52,4.166-0.225c4.727,0.986,3.113,10.353-0.475,11.738
				c-4.796,1.851-9.563-5.653-14.698-2.292c-6.232,4.079-1.927,11.055,2.564,14.553c7.121,5.546,18.086,3.626,25.513-0.197
				c8.147-4.194,10.964-12.807,9.496-21.448c-1.28-7.535-7.935-10.324-14.788-11.079c-3.444-0.379-5.037,0.186-5.022-3.902
				c0.006-1.569-0.456-3.854,1.512-3.83c3.423,0.042,6.846,0.024,10.269,0.003c1.22-0.007,4.004,0.542,5.113-0.234
				c4.991-3.493,3.479-12.386-2.879-13.126c-4.461-0.519-9.124-0.241-13.63-0.459c-4.21-0.203-8.478-0.488-12.689-0.167
				c-2.21,0.169-2.796,2.217-3.135,4.07c-0.96,5.24-0.269,11.228-0.338,16.553c-0.037,2.843-0.674,6.491,0.884,9.048
				C17.65,38.036,21.785,37.011,24.134,36.319c0.648-0.191,0.372-1.204-0.279-1.012c-5.356,1.578-7.698-0.431-7.717-5.387
				c-0.014-3.669,0.081-7.339,0.13-11.008c0.039-2.916-1.236-11.935,2.859-12.248c2.382-0.182,4.8-0.071,7.184,0.001
				c5.756,0.175,11.508,0.344,17.259,0.51c7.775,0.225,7.997,11.351,0.435,11.406c-4.502,0.032-9.004,0.039-13.506-0.017
				c-0.278-0.003-0.537,0.241-0.525,0.525c0.117,2.875-0.16,5.733-0.009,8.622c0.015,0.285,0.228,0.526,0.525,0.525
				c5.586-0.02,11.807,0.252,16.118,4.269c4.301,4.007,4.067,11.861,2.527,16.966c-4.182,13.865-27.792,17.559-36.227,6.341
				c-1.657-2.204-2.568-4.811-1.283-7.453c2.739-5.632,9.456-0.719,13.31,0.436c2.7,0.809,5.596-0.483,6.449-3.245
				c1.849-5.985-0.308-12.523-7.53-10.242C23.212,35.51,23.487,36.523,24.134,36.319z"/>
		</g>
	</g>
</g>
</svg>
