<?xml version="1.0" encoding="utf-8"?>
<!-- Generator: Adobe Illustrator 17.0.2, SVG Export Plug-In . SVG Version: 6.00 Build 0)  -->
<!DOCTYPE svg PUBLIC "-//W3C//DTD SVG 1.1//EN" "http://www.w3.org/Graphics/SVG/1.1/DTD/svg11.dtd">
<svg version="1.1" id="Layer_1" xmlns="http://www.w3.org/2000/svg" xmlns:xlink="http://www.w3.org/1999/xlink" x="0px" y="0px"
	 width="340.157px" height="340.157px" viewBox="0 0 340.157 340.157" enable-background="new 0 0 340.157 340.157"
	 xml:space="preserve">
<g id="BG_copy_2">
	<g>
		<g>
			
				<radialGradient id="SVGID_1_" cx="86.0795" cy="19.0941" r="174.3714" gradientTransform="matrix(1 0 0 -1 84 315.157)" gradientUnits="userSpaceOnUse">
				<stop  offset="0.0112" style="stop-color:#E6E6E6"/>
				<stop  offset="0.327" style="stop-color:#C8C8C8"/>
				<stop  offset="1" style="stop-color:#A0A0A0"/>
			</radialGradient>
			<path fill="url(#SVGID_1_)" d="M170.078,314.636c-79.71,0-144.558-64.848-144.558-144.557S90.368,25.521,170.078,25.521
				c79.713,0,144.561,64.848,144.561,144.557S249.79,314.636,170.078,314.636z"/>
			<path fill="#8C8C8C" d="M170.078,28.597c78.013,0,141.484,63.469,141.484,141.481S248.09,311.56,170.078,311.56
				S28.596,248.091,28.596,170.078C28.596,92.066,92.065,28.597,170.078,28.597 M170.078,22.446
				c-81.542,0-147.633,66.103-147.633,147.633c0,81.542,66.091,147.633,147.633,147.633c81.545,0,147.636-66.092,147.636-147.633
				C317.713,88.549,251.622,22.446,170.078,22.446L170.078,22.446z"/>
		</g>
		<g>
			
				<linearGradient id="SVGID_2_" gradientUnits="userSpaceOnUse" x1="86.0765" y1="293.0726" x2="86.0765" y2="96.2945" gradientTransform="matrix(1 0 0 -1 84 315.157)">
				<stop  offset="0.0104" style="stop-color:#FFFFFF;stop-opacity:0.9"/>
				<stop  offset="1" style="stop-color:#FFFFFF;stop-opacity:0.1"/>
			</linearGradient>
			<path fill="url(#SVGID_2_)" d="M170.078,47.063c72.546,0,131.933,57.405,135.165,129.179c0.096-2.043,0.156-4.097,0.156-6.164
				c0-74.609-60.709-135.33-135.321-135.33c-74.616,0-135.324,60.721-135.324,135.33c0,2.066,0.06,4.121,0.156,6.164
				C38.141,104.468,97.528,47.063,170.078,47.063z"/>
		</g>
		<g>
			
				<linearGradient id="SVGID_3_" gradientUnits="userSpaceOnUse" x1="86.0795" y1="284.4341" x2="86.0795" y2="87.752" gradientTransform="matrix(1 0 0 -1 84 315.157)">
				<stop  offset="0" style="stop-color:#FFFFFF;stop-opacity:0.6"/>
				<stop  offset="1" style="stop-color:#FFFFFF;stop-opacity:0.1"/>
			</linearGradient>
			<path fill="url(#SVGID_3_)" d="M170.078,191.151c51.305,0,98.341-11.99,134.805-31.838
				C299.008,90.074,240.81,35.505,170.078,35.505c-70.729,0-128.927,54.569-134.802,123.808
				C71.74,179.161,118.776,191.151,170.078,191.151z"/>
		</g>
	</g>
</g>
<g id="play">
	<g opacity="0.4">
		
			<linearGradient id="SVGID_4_" gradientUnits="userSpaceOnUse" x1="108.31" y1="201.2974" x2="108.31" y2="80.9789" gradientTransform="matrix(1 0 0 -1 84 315.157)">
			<stop  offset="0" style="stop-color:#706F71"/>
			<stop  offset="1" style="stop-color:#050707"/>
		</linearGradient>
		<polygon fill="url(#SVGID_4_)" points="135.958,105 248.662,170.072 135.958,235.158 		"/>
		<path fill="#14272A" d="M137.496,107.664l108.091,62.408l-108.091,62.421V107.664 M134.42,102.336v135.486l117.318-67.75
			L134.42,102.336L134.42,102.336z"/>
	</g>
</g>
</svg>
