<?xml version="1.0" encoding="utf-8"?>
<!-- Generator: Adobe Illustrator 17.0.2, SVG Export Plug-In . SVG Version: 6.00 Build 0)  -->
<!DOCTYPE svg PUBLIC "-//W3C//DTD SVG 1.1//EN" "http://www.w3.org/Graphics/SVG/1.1/DTD/svg11.dtd">
<svg version="1.1" xmlns="http://www.w3.org/2000/svg" xmlns:xlink="http://www.w3.org/1999/xlink" x="0px" y="0px"
	 width="340.157px" height="340.157px" viewBox="0 0 340.157 340.157" enable-background="new 0 0 340.157 340.157"
	 xml:space="preserve">
<g id="BG">
	<g>
		<g>
			<radialGradient id="SVGID_1_" cx="170.0789" cy="296.0629" r="174.3716" gradientUnits="userSpaceOnUse">
				<stop  offset="0" style="stop-color:#FDF38B"/>
				<stop  offset="0.3132" style="stop-color:#FCEF57"/>
				<stop  offset="1" style="stop-color:#FAA819"/>
			</radialGradient>
			<path fill="url(#SVGID_1_)" d="M170.078,314.636c-79.71,0-144.558-64.848-144.558-144.557S90.368,25.521,170.078,25.521
				c79.713,0,144.561,64.848,144.561,144.557S249.79,314.636,170.078,314.636z"/>
			<path fill="#D78128" d="M170.078,28.597c78.013,0,141.484,63.469,141.484,141.481c0,78.012-63.472,141.482-141.484,141.482
				S28.596,248.091,28.596,170.078C28.596,92.066,92.065,28.597,170.078,28.597 M170.078,22.446
				c-81.542,0-147.633,66.103-147.633,147.633c0,81.542,66.091,147.633,147.633,147.633c81.545,0,147.636-66.092,147.636-147.633
				C317.713,88.549,251.622,22.446,170.078,22.446L170.078,22.446z"/>
		</g>
		<g>
			<linearGradient id="SVGID_2_" gradientUnits="userSpaceOnUse" x1="170.076" y1="22.0844" x2="170.076" y2="218.8625">
				<stop  offset="0.0104" style="stop-color:#FFFFFF;stop-opacity:0.9"/>
				<stop  offset="1" style="stop-color:#FFFFFF;stop-opacity:0.1"/>
			</linearGradient>
			<path fill="url(#SVGID_2_)" d="M170.078,47.063c72.546,0,131.933,57.405,135.165,129.179c0.096-2.043,0.156-4.097,0.156-6.164
				c0-74.609-60.709-135.33-135.321-135.33c-74.616,0-135.324,60.721-135.324,135.33c0,2.066,0.06,4.121,0.156,6.164
				C38.141,104.468,97.528,47.063,170.078,47.063z"/>
		</g>
		<g>
			<linearGradient id="SVGID_3_" gradientUnits="userSpaceOnUse" x1="170.0789" y1="29.7229" x2="170.0789" y2="226.405">
				<stop  offset="0" style="stop-color:#FFFFFF"/>
				<stop  offset="1" style="stop-color:#FFFFFF;stop-opacity:0.1"/>
			</linearGradient>
			<path fill="url(#SVGID_3_)" d="M170.078,190.151c51.305,0,98.341-11.99,134.805-31.838
				c-5.875-69.239-64.073-123.808-134.805-123.808c-70.729,0-128.927,54.569-134.802,123.808
				C71.74,178.161,118.776,190.151,170.078,190.151z"/>
		</g>
	</g>
</g>
<g id="info">
	<g>
		<g>
			<radialGradient id="SVGID_4_" cx="194.5277" cy="251.3825" r="86.9277" gradientUnits="userSpaceOnUse">
				<stop  offset="0" style="stop-color:#D7D8DA"/>
				<stop  offset="0.0494" style="stop-color:#C7C8CA"/>
				<stop  offset="0.2294" style="stop-color:#939495"/>
				<stop  offset="0.4057" style="stop-color:#686869"/>
				<stop  offset="0.5745" style="stop-color:#464647"/>
				<stop  offset="0.7338" style="stop-color:#2E2E2E"/>
				<stop  offset="0.8797" style="stop-color:#1F1F1F"/>
				<stop  offset="1" style="stop-color:#1A1A1A"/>
			</radialGradient>
			<rect x="149.628" y="147.444" fill="url(#SVGID_4_)" width="40.908" height="106.55"/>
			<g>
				<path fill="#404041" d="M188.687,149.292v102.852h-37.21V149.292H188.687 M192.386,145.594h-44.606v110.25h44.606V145.594
					L192.386,145.594z"/>
			</g>
		</g>
		<g>
			<radialGradient id="SVGID_5_" cx="195.313" cy="124.2448" r="44.9216" gradientUnits="userSpaceOnUse">
				<stop  offset="0" style="stop-color:#C8C8C8"/>
				<stop  offset="1" style="stop-color:#0A0A0A"/>
			</radialGradient>
			<path fill="url(#SVGID_5_)" d="M170.079,125.303c-12.444,0-22.567-10.126-22.567-22.574c0-12.443,10.123-22.567,22.567-22.567
				c12.442,0,22.566,10.124,22.566,22.567C192.646,115.177,182.522,125.303,170.079,125.303z"/>
			<g>
				<path fill="#404041" d="M170.079,82.012c11.423,0,20.717,9.293,20.717,20.718c0,11.427-9.294,20.725-20.717,20.725
					c-11.425,0-20.719-9.298-20.719-20.725C149.36,91.305,158.654,82.012,170.079,82.012 M170.079,78.313
					c-13.487,0-24.417,10.936-24.417,24.416c0,13.486,10.93,24.423,24.417,24.423c13.486,0,24.416-10.937,24.416-24.423
					C194.495,89.249,183.566,78.313,170.079,78.313L170.079,78.313z"/>
			</g>
		</g>
		<g>
			<linearGradient id="SVGID_6_" gradientUnits="userSpaceOnUse" x1="154.6009" y1="37.2325" x2="199.9067" y2="242.6351">
				<stop  offset="0" style="stop-color:#FFFFFF"/>
				<stop  offset="1" style="stop-color:#000000"/>
			</linearGradient>
			<path fill="url(#SVGID_6_)" d="M153.068,106.435c0-11.422,9.288-20.717,20.717-20.717c4.767,0,9.153,1.631,12.656,4.355
				c-3.793-4.892-9.709-8.062-16.361-8.062c-11.421,0-20.719,9.297-20.719,20.718c0,6.653,3.172,12.569,8.061,16.362
				C154.698,115.587,153.068,111.204,153.068,106.435z"/>
			<linearGradient id="SVGID_7_" gradientUnits="userSpaceOnUse" x1="134.9721" y1="41.5575" x2="180.2782" y2="246.9617">
				<stop  offset="0" style="stop-color:#FFFFFF"/>
				<stop  offset="1" style="stop-color:#000000"/>
			</linearGradient>
			<polygon fill="url(#SVGID_7_)" points="155.176,152.999 188.687,152.999 188.687,149.292 151.47,149.292 151.47,252.144 
				155.176,252.144 			"/>
		</g>
		<linearGradient id="SVGID_8_" gradientUnits="userSpaceOnUse" x1="155.0982" y1="51.1445" x2="174.0691" y2="116.4807">
			<stop  offset="0" style="stop-color:#FFFFFF"/>
			<stop  offset="1" style="stop-color:#000000"/>
		</linearGradient>
		<path opacity="0.4" fill="url(#SVGID_8_)" d="M189.857,96.56c-2.629-8.415-10.502-14.549-19.777-14.549
			c-11.421,0-20.719,9.297-20.719,20.718c0,7.333,3.837,13.769,9.593,17.452C159.64,110.039,172.542,99.941,189.857,96.56z"/>
		<linearGradient id="SVGID_9_" gradientUnits="userSpaceOnUse" x1="138.6977" y1="56.7184" x2="182.1599" y2="212.0725">
			<stop  offset="0" style="stop-color:#FFFFFF"/>
			<stop  offset="1" style="stop-color:#000000"/>
		</linearGradient>
		<path fill="url(#SVGID_9_)" d="M188.687,174.056v-24.764H151.47v39.189C162.804,183.259,175.28,178.405,188.687,174.056z"/>
	</g>
</g>
</svg>
