<?xml version="1.0" encoding="utf-8"?>
<!-- Generator: Adobe Illustrator 17.0.2, SVG Export Plug-In . SVG Version: 6.00 Build 0)  -->
<!DOCTYPE svg PUBLIC "-//W3C//DTD SVG 1.1//EN" "http://www.w3.org/Graphics/SVG/1.1/DTD/svg11.dtd">
<svg version="1.1" id="Layer_1" xmlns="http://www.w3.org/2000/svg" xmlns:xlink="http://www.w3.org/1999/xlink" x="0px" y="0px"
	 width="113.644px" height="87.087px" viewBox="0 0 113.644 87.087" enable-background="new 0 0 113.644 87.087"
	 xml:space="preserve">
<g id="base_copy_3">
	<g>
		<path fill="#DCDCDC" d="M19.582,58.097c0,0-1.868,21.678,14.576,26.163s25.414-2.991,29.525-4.859
			c8.596,4.112,27.283,2.531,31.768-7.517c4.485-10.048,1.121-16.403,1.869-17.15c9.718-4.485,17.185-15.52,14.203-22.05
			c-3.815-8.353-6.728-12.707-21.678-11.212C80.875,12.127,74.009,1.857,59.17,2.176C42.861,2.526,36.365,6.52,27.786,18.854
			c-13.437,2.617-20.538,2.99-23.528,9.718S-3.589,51.369,19.582,58.097z"/>
		<g>
			<path d="M18.832,58.097c-1.098,13.768,5.923,26.215,20.357,27.964c8.958,1.085,16.193-1.321,23.916-5.533
				c1.057-0.577,2.933,0.571,4.028,0.865c1.838,0.496,3.765,0.676,5.657,0.814c4.787,0.349,9.707-0.452,14.187-2.127
				c8.691-3.25,12.079-11.925,11.522-20.766c-0.087-1.374-0.426-2.718-0.542-4.087c-0.009-0.11,5.102-3.139,5.827-3.703
				c3.851-2.993,6.877-7.159,8.512-11.738c2.165-6.064-2.065-13.619-7.059-17.049c-3.044-2.091-7.125-2.288-10.679-2.302
				c-4.004-0.015-5.252-0.598-7.928-3.521c-2.101-2.294-4.214-4.566-6.463-6.715C70.446,0.91,57.363-0.419,44.785,3.412
				c-5.056,1.54-9.187,4.799-12.695,8.654c-2.548,2.8-3.82,5.946-7.866,6.703c-3.959,0.741-7.939,1.391-11.812,2.518
				C4.591,23.563,1.559,30.617,0.966,38.23c-0.88,11.309,8.809,17.63,18.416,20.59c0.927,0.286,1.32-1.162,0.399-1.446
				C9.629,54.245,0.998,47.756,2.692,36.18c0.408-2.792,1.389-5.548,2.628-8.072c2.371-4.829,8.692-5.832,13.404-6.788
				c3.078-0.625,6.177-1.151,9.262-1.743c1.035-0.199,3.07-3.921,3.573-4.561c3.377-4.296,7.474-7.792,12.592-9.8
				c12.052-4.728,25.475-2.61,34.955,6.042c1.96,1.788,3.751,3.765,5.547,5.714c1.408,1.528,3.023,4.097,4.813,5.146
				c1.199,0.702,4.982-0.185,6.471-0.179c3.006,0.012,5.934,0.576,8.544,2.092c3.441,2,6.522,7.567,6.944,11.412
				c0.731,6.667-5.925,13.138-10.813,16.577c-2.266,1.594-4.443,1.419-4.015,4.345c0.917,6.272,0.438,13.387-3.975,18.363
				c-3.633,4.096-9.908,5.447-15.093,5.927c-2.629,0.244-5.298,0.09-7.905-0.286c-1.858-0.268-4.193-1.721-5.939-1.721
				c-0.95,0-2.266,1.094-3.061,1.54c-2.34,1.31-4.733,2.437-7.277,3.299c-7.519,2.55-17.235,1.972-24.045-2.214
				c-7.327-4.505-9.61-15.141-8.969-23.178C20.409,57.132,18.908,57.139,18.832,58.097z"/>
		</g>
	</g>
</g>
<g id="_x38__copy">
	<g>
		<path fill="#BEBEBE" d="M80.837,46.976c-0.103-8.31-6.44-11.115-9.037-13.088c1.143-1.143,3.947-0.312,3.116-9.869
			S62.97,11.346,58.919,11.658s-10.542,0.269-14.727,4.986c-6.728,7.583-2.102,16.101,1.015,19.01
			c-1.35,0.831-2.909,1.974-6.337,5.911c-6.804,7.814-3.324,30.031,18.179,29.927C78.552,71.387,80.941,55.286,80.837,46.976z
			 M58.919,21.63c2.49-0.158,4.05,0.727,4.674,2.285c0.624,1.558,0.935,3.948,0.831,5.298c-0.104,1.35,0.448,3.937-2.077,4.525
			c-3.121,0.727-5.714,0.357-7.271-1.721C54.601,31.384,52.375,22.045,58.919,21.63z M66.086,55.909
			c-1.143,1.974-4.589,4.258-7.8,4.155c-3.211-0.104-7.574,0.104-8.405-5.297c-0.831-5.402-0.311-8.103,1.351-10.076
			c1.662-1.974,3.306-2.722,7.055-3.127c2.767-0.299,5.93,1.153,7.28,3.646S67.229,53.936,66.086,55.909z"/>
		<g>
			<path d="M81.362,46.976c-0.242-4.021-1.57-7.194-4.47-10.001c-1.098-1.062-2.434-1.909-3.697-2.753
				c-0.984-0.657-0.062-0.461,0.807-1.179c2.288-1.891,1.602-6.617,1.44-9.025c-0.243-3.616-2.303-7.077-5.256-9.155
				c-6.392-4.498-14.583-4.682-21.753-1.878c-8.691,3.398-9.973,13.821-5.399,20.904c0.655,1.014,1.782,1.295,0.725,2.112
				c-1.964,1.519-3.613,3.34-5.259,5.19c-1.871,2.104-2.722,4.884-3.123,7.614c-0.938,6.391,1.494,12.982,5.97,17.528
				c11.274,11.452,33.502,5.771,38.57-8.929C81.061,54.085,81.379,50.467,81.362,46.976c-0.003-0.677-1.053-0.677-1.05,0
				c0.028,5.989-1.18,11.973-4.959,16.77c-5.737,7.283-17.148,8.49-25.534,6.264c-7.786-2.066-12.699-9.163-13.491-16.907
				c-0.732-7.157,3.214-13.215,9.145-16.996c0.285-0.182,0.351-0.577,0.106-0.825c-5.496-5.566-5.602-13.672-0.01-19.274
				c3.627-3.634,11.093-4.376,16.017-3.656c9.318,1.362,18.68,13.861,9.843,21.164c-0.283,0.234-0.144,0.644,0.106,0.825
				c4.747,3.423,8.394,6.268,8.777,12.635C80.353,47.648,81.403,47.652,81.362,46.976z"/>
			<path d="M58.919,22.155c2.081-0.048,3.654,0.447,4.387,2.519c0.552,1.56,0.644,3.263,0.579,4.9
				c-0.079,1.977-0.04,3.32-2.446,3.816c-1.951,0.402-4.798,0.22-5.953-1.71c-0.653-1.092-0.624-2.906-0.632-4.118
				C54.836,24.858,55.996,22.46,58.919,22.155c0.666-0.07,0.673-1.12,0-1.05c-3.405,0.356-4.902,2.815-5.105,6.048
				c-0.164,2.616,0.231,5.819,3.005,6.902c1.774,0.693,4.629,0.938,6.362-0.05c1.558-0.888,1.759-2.357,1.753-4.029
				c-0.014-4.493-0.597-8.996-6.015-8.871C58.243,21.12,58.242,22.17,58.919,22.155z"/>
			<path d="M65.633,55.644c-2.592,3.729-7.155,4.377-11.313,3.56c-4.859-0.956-4.903-8.307-3.855-12.085
				c1.361-4.908,8.186-6.04,12.156-4.101C66.491,44.908,67.25,52.062,65.633,55.644c-0.276,0.612,0.628,1.146,0.907,0.53
				c1.698-3.764,1.215-11.071-2.581-13.538c-4.494-2.921-11.021-1.765-13.915,2.846c-2.405,3.83-1.603,11.946,2.568,14.237
				c4.488,2.465,11.145,0.459,13.928-3.545C66.927,55.617,66.017,55.093,65.633,55.644z"/>
		</g>
	</g>
</g>
</svg>
