<?xml version="1.0" encoding="utf-8"?>
<!-- Generator: Adobe Illustrator 17.0.2, SVG Export Plug-In . SVG Version: 6.00 Build 0)  -->
<!DOCTYPE svg PUBLIC "-//W3C//DTD SVG 1.1//EN" "http://www.w3.org/Graphics/SVG/1.1/DTD/svg11.dtd">
<svg version="1.1" id="Layer_1" xmlns="http://www.w3.org/2000/svg" xmlns:xlink="http://www.w3.org/1999/xlink" x="0px" y="0px"
	 width="113.644px" height="87.087px" viewBox="0 0 113.644 87.087" enable-background="new 0 0 113.644 87.087"
	 xml:space="preserve">
<g id="base_copy_3">
	<g>
		<path fill="#DCDCDC" d="M19.582,58.097c0,0-1.868,21.678,14.576,26.163s25.414-2.991,29.525-4.859
			c8.596,4.112,27.283,2.531,31.768-7.517c4.485-10.048,1.121-16.403,1.869-17.15c9.718-4.485,17.185-15.52,14.203-22.05
			c-3.815-8.353-6.728-12.707-21.678-11.212C80.875,12.127,74.009,1.857,59.17,2.176C42.861,2.526,36.365,6.52,27.786,18.854
			c-13.437,2.617-20.538,2.99-23.528,9.718S-3.589,51.369,19.582,58.097z"/>
		<g>
			<path d="M18.832,58.097c-1.098,13.768,5.923,26.215,20.357,27.964c8.958,1.085,16.193-1.321,23.916-5.533
				c1.057-0.577,2.933,0.571,4.028,0.865c1.838,0.496,3.765,0.676,5.657,0.814c4.787,0.349,9.707-0.452,14.187-2.127
				c8.691-3.25,12.079-11.925,11.522-20.766c-0.087-1.374-0.426-2.718-0.542-4.087c-0.009-0.11,5.102-3.139,5.827-3.703
				c3.851-2.993,6.877-7.159,8.512-11.738c2.165-6.064-2.065-13.619-7.059-17.049c-3.044-2.091-7.125-2.288-10.679-2.302
				c-4.004-0.015-5.252-0.598-7.928-3.521c-2.101-2.294-4.214-4.566-6.463-6.715C70.446,0.91,57.363-0.419,44.785,3.412
				c-5.056,1.54-9.187,4.799-12.695,8.654c-2.548,2.8-3.82,5.946-7.866,6.703c-3.959,0.741-7.939,1.391-11.812,2.518
				C4.591,23.563,1.559,30.617,0.966,38.23c-0.88,11.309,8.809,17.63,18.416,20.59c0.927,0.286,1.32-1.162,0.399-1.446
				C9.629,54.245,0.998,47.756,2.692,36.18c0.408-2.792,1.389-5.548,2.628-8.072c2.371-4.829,8.692-5.832,13.404-6.788
				c3.078-0.625,6.177-1.151,9.262-1.743c1.035-0.199,3.07-3.921,3.573-4.561c3.377-4.296,7.474-7.792,12.592-9.8
				c12.052-4.728,25.475-2.61,34.955,6.042c1.96,1.788,3.751,3.765,5.547,5.714c1.408,1.528,3.023,4.097,4.813,5.146
				c1.199,0.702,4.982-0.185,6.471-0.179c3.006,0.012,5.934,0.576,8.544,2.092c3.441,2,6.522,7.567,6.944,11.412
				c0.731,6.667-5.925,13.138-10.813,16.577c-2.266,1.594-4.443,1.419-4.015,4.345c0.917,6.272,0.438,13.387-3.975,18.363
				c-3.633,4.096-9.908,5.447-15.093,5.927c-2.629,0.244-5.298,0.09-7.905-0.286c-1.858-0.268-4.193-1.721-5.939-1.721
				c-0.95,0-2.266,1.094-3.061,1.54c-2.34,1.31-4.733,2.437-7.277,3.299c-7.519,2.55-17.235,1.972-24.045-2.214
				c-7.327-4.505-9.61-15.141-8.969-23.178C20.409,57.132,18.908,57.139,18.832,58.097z"/>
		</g>
	</g>
</g>
<g id="_x33__copy">
	<g>
		<path fill="#BEBEBE" d="M54.084,26.19c2.838-3.176,9.319,2.353,8.143,6.333c-1.176,3.981-3.619,3.257-5.972,3.891
			c-2.352,0.633-4.524,2.985-3.529,6.152c0.996,3.167,2.986,5.248,5.881,6.696c2.895,1.447,4.718,7.871-1.17,9.319
			c-5.888,1.448-7.335,0.09-8.783-2.443c-1.448-2.533-4.252-6.695-10.586-3.348c-6.334,3.348-2.986,12.848,5.157,15.472
			s28.501,7.057,32.934-6.695c4.433-13.753-0.815-19-7.058-19.453c6.153-3.348,12.848-13.029,5.067-21.172
			s-15.11-10.677-24.429-7.691S38.52,23.747,40.601,27.366C42.683,30.985,50.284,30.442,54.084,26.19z"/>
		<g>
			<path d="M54.455,26.561c4.527-3.695,11.987,7.581,3.421,9.031c-1.402,0.237-3.159,0.469-4.174,1.623
				c-2.462,2.8-2.03,6.439,0.474,9.231c1.566,1.747,3.537,2.528,5.216,4.082c4.898,4.536-2.204,7.967-6.174,8.116
				c-4.361,0.164-4.741-6.292-8.773-7.296c-7.288-1.815-12.012,4.806-9.043,11.178c3.185,6.835,13.156,8.051,19.711,8.828
				c7.293,0.865,15.659-0.014,20.124-6.527c3.525-5.142,5.406-17.088-0.69-21.318c-1.171-0.813-2.33-1.317-3.704-1.674
				c-2.115-0.55-0.285,0.021-0.501,0.15c0.691-0.411,1.408-1.029,2.028-1.53c3.514-2.841,5.642-7.116,5.838-11.588
				c0.406-9.265-12.249-16.549-20.158-17.317c-7.883-0.766-18.511,3.991-18.733,12.918C39.105,33.017,50.648,30.303,54.455,26.561
				c0.483-0.475-0.259-1.217-0.742-0.742c-4.593,4.515-15.056,4.907-13.023-3.806c1.569-6.723,10.104-9.19,16.039-9.446
				c6.835-0.294,12.538,4.162,17.07,8.746c6.752,6.829,2.053,16.17-4.961,20.347c-0.482,0.287-0.23,0.925,0.265,0.978
				c10.367,1.11,9.001,13.685,5.75,20.736c-3.353,7.272-12.933,7.585-19.74,6.93c-6.66-0.641-15.132-2.16-18.804-8.308
				c-4.33-7.251,6.177-13.444,11.046-6.955c1.257,1.676,1.792,3.304,3.762,4.263c2.869,1.396,9.666,0.072,10.488-3.587
				c0.429-1.912,0.091-3.523-0.895-5.203c-0.274-0.467-0.774-1.03-1.235-1.324c-2.907-1.85-4.97-3.392-6.242-6.765
				c-2.174-5.765,5.958-5.268,8.267-7.334c1.567-1.402,1.541-3.785,0.963-5.586c-1.104-3.44-5.699-6.178-8.75-3.688
				C53.188,26.247,53.935,26.985,54.455,26.561z"/>
		</g>
	</g>
</g>
</svg>
