<?xml version="1.0" encoding="utf-8"?>
<!-- Generator: Adobe Illustrator 17.0.2, SVG Export Plug-In . SVG Version: 6.00 Build 0)  -->
<!DOCTYPE svg PUBLIC "-//W3C//DTD SVG 1.1//EN" "http://www.w3.org/Graphics/SVG/1.1/DTD/svg11.dtd">
<svg version="1.1" id="Layer_1" xmlns="http://www.w3.org/2000/svg" xmlns:xlink="http://www.w3.org/1999/xlink" x="0px" y="0px"
	 width="113.644px" height="87.087px" viewBox="0 0 113.644 87.087" enable-background="new 0 0 113.644 87.087"
	 xml:space="preserve">
<g id="base_copy_3">
	<g>
		<path fill="#DCDCDC" d="M19.582,58.097c0,0-1.868,21.678,14.576,26.163s25.414-2.991,29.525-4.859
			c8.596,4.112,27.283,2.531,31.768-7.517c4.485-10.048,1.121-16.403,1.869-17.15c9.718-4.485,17.185-15.52,14.203-22.05
			c-3.815-8.353-6.728-12.707-21.678-11.212C80.875,12.127,74.009,1.857,59.17,2.176C42.861,2.526,36.365,6.52,27.786,18.854
			c-13.437,2.617-20.538,2.99-23.528,9.718S-3.589,51.369,19.582,58.097z"/>
		<g>
			<path d="M18.832,58.097c-1.098,13.768,5.923,26.215,20.357,27.964c8.958,1.085,16.193-1.321,23.916-5.533
				c1.057-0.577,2.933,0.571,4.028,0.865c1.838,0.496,3.765,0.676,5.657,0.814c4.787,0.349,9.707-0.452,14.187-2.127
				c8.691-3.25,12.079-11.925,11.522-20.766c-0.087-1.374-0.426-2.718-0.542-4.087c-0.009-0.11,5.102-3.139,5.827-3.703
				c3.851-2.993,6.877-7.159,8.512-11.738c2.165-6.064-2.065-13.619-7.059-17.049c-3.044-2.091-7.125-2.288-10.679-2.302
				c-4.004-0.015-5.252-0.598-7.928-3.521c-2.101-2.294-4.214-4.566-6.463-6.715C70.446,0.91,57.363-0.419,44.785,3.412
				c-5.056,1.54-9.187,4.799-12.695,8.654c-2.548,2.8-3.82,5.946-7.866,6.703c-3.959,0.741-7.939,1.391-11.812,2.518
				C4.591,23.563,1.559,30.617,0.966,38.23c-0.88,11.309,8.809,17.63,18.416,20.59c0.927,0.286,1.32-1.162,0.399-1.446
				C9.629,54.245,0.998,47.756,2.692,36.18c0.408-2.792,1.389-5.548,2.628-8.072c2.371-4.829,8.692-5.832,13.404-6.788
				c3.078-0.625,6.177-1.151,9.262-1.743c1.035-0.199,3.07-3.921,3.573-4.561c3.377-4.296,7.474-7.792,12.592-9.8
				c12.052-4.728,25.475-2.61,34.955,6.042c1.96,1.788,3.751,3.765,5.547,5.714c1.408,1.528,3.023,4.097,4.813,5.146
				c1.199,0.702,4.982-0.185,6.471-0.179c3.006,0.012,5.934,0.576,8.544,2.092c3.441,2,6.522,7.567,6.944,11.412
				c0.731,6.667-5.925,13.138-10.813,16.577c-2.266,1.594-4.443,1.419-4.015,4.345c0.917,6.272,0.438,13.387-3.975,18.363
				c-3.633,4.096-9.908,5.447-15.093,5.927c-2.629,0.244-5.298,0.09-7.905-0.286c-1.858-0.268-4.193-1.721-5.939-1.721
				c-0.95,0-2.266,1.094-3.061,1.54c-2.34,1.31-4.733,2.437-7.277,3.299c-7.519,2.55-17.235,1.972-24.045-2.214
				c-7.327-4.505-9.61-15.141-8.969-23.178C20.409,57.132,18.908,57.139,18.832,58.097z"/>
		</g>
	</g>
</g>
<g id="_x34__copy">
	<g>
		<path fill="#BEBEBE" d="M80.536,44.653c-1.267-1.176-1.447-1.085-8.686-1.002c0-4.26-0.543-9.854-0.362-21.798
			c0.181-11.943-9.862-8.686-10.477-8.595l-1.326,0.776C58.437,15.1,36.563,36.51,28.873,45.106
			c-2.624,8.505,2.262,12.305,5.067,13.753c2.805,1.447,12.033,1.538,20.267,1.357c-0.09,1.629-0.453,1.99-0.453,8.415
			c1.085,4.795,10.677,4.162,13.481,2.443c2.805-1.719,1.476-7.596,1.837-13.658c3.166-0.091,4.768-0.547,10.196-0.547
			C84.698,56.868,81.803,45.829,80.536,44.653z M59.214,45.898c0,0-11.778,0.174-12.738,0s-1.832-0.96-2.094-1.658
			s0.436-2.792,0.873-3.141c0.436-0.349,9.345-9.233,10.031-9.685c3.052-2.007,4.19,0,4.626,1.134
			C60.348,33.684,59.214,45.898,59.214,45.898z"/>
		<g>
			<path d="M80.908,44.282c-1.632-1.459-3.67-1.204-5.76-1.195c-3.211,0.014-2.767-0.58-2.871-3.403
				c-0.095-2.606-0.193-5.211-0.25-7.819c-0.122-5.553,2.376-18.391-6.121-19.485c-4.026-0.518-6.182,0.85-8.931,3.509
				c-6.534,6.321-12.972,12.747-19.34,19.235c-2.914,2.968-5.807,5.959-8.612,9.031c-2.319,2.54-1.579,7.397-0.345,10.287
				c3.394,7.948,15.516,6.401,22.2,6.353c2.607-0.019,2.793-0.565,2.544,1.829c-0.175,1.68-0.715,4.598-0.174,6.145
				c0.924,2.64,3.388,3.788,6.096,4.001c2.336,0.184,6.31,0.339,8.263-1.327c3.234-2.759,1.922-8.689,1.93-12.383
				c0.006-3.003,10.974,0.019,12.923-3.841C83.89,52.39,82.847,46.702,80.908,44.282c-0.423-0.528-1.161,0.22-0.742,0.742
				c1.771,2.21,2.03,6.42,1.564,9.06c-0.578,3.278-9.905,2.689-12.656,2.806c-0.294,0.012-0.514,0.23-0.525,0.525
				c-0.113,3.039,0.054,6.072-0.028,9.11c-0.129,4.826-4.417,5.331-8.159,5.276c-6.944-0.102-6.008-6.57-5.629-11.585
				c0.021-0.282-0.255-0.53-0.525-0.525c-6.289,0.122-13.377,0.74-19.483-1.067c-6.892-2.039-7.419-11.103-3.175-15.658
				c6.85-7.352,14.027-14.41,21.184-21.46c3.717-3.661,6.855-8.479,12.535-8.157c7.689,0.435,5.627,12.024,5.684,17.095
				c0.049,4.404,0.343,8.803,0.373,13.207c0.002,0.284,0.237,0.528,0.525,0.525c2.306-0.028,6.41-0.854,8.314,0.849
				C80.668,45.474,81.413,44.734,80.908,44.282z"/>
			<path d="M59.214,45.373c-3.65,0.053-7.303,0.103-10.953,0.068c-2.529-0.024-4.614-2.076-2.285-4.296
				c1.466-1.398,2.897-2.835,4.343-4.254c1.47-1.442,2.938-2.886,4.435-4.3c1.159-1.096,3.505-2.052,4.532-0.181
				c0.372,0.677,0.202,1.713,0.184,2.447c-0.089,3.684-0.442,7.373-0.781,11.041c-0.062,0.674,0.988,0.668,1.05,0
				c0.192-2.081,0.36-4.165,0.512-6.249c0.163-2.228,0.734-5.035,0.167-7.239c-1.63-6.336-8.603,1.546-10.384,3.29
				c-1.855,1.816-9.523,7.494-4.735,10.299c1.848,1.082,4.942,0.505,6.954,0.495c2.32-0.011,4.641-0.037,6.961-0.071
				C59.891,46.413,59.892,45.363,59.214,45.373z"/>
		</g>
	</g>
</g>
</svg>
