<?xml version="1.0" encoding="utf-8"?>
<!-- Generator: Adobe Illustrator 17.0.2, SVG Export Plug-In . SVG Version: 6.00 Build 0)  -->
<!DOCTYPE svg PUBLIC "-//W3C//DTD SVG 1.1//EN" "http://www.w3.org/Graphics/SVG/1.1/DTD/svg11.dtd">
<svg version="1.1" id="Layer_1" xmlns="http://www.w3.org/2000/svg" xmlns:xlink="http://www.w3.org/1999/xlink" x="0px" y="0px"
	 width="113.644px" height="87.087px" viewBox="0 0 113.644 87.087" enable-background="new 0 0 113.644 87.087"
	 xml:space="preserve">
<g id="base_copy_3">
	<g>
		<path fill="#DCDCDC" d="M19.582,58.097c0,0-1.868,21.678,14.576,26.163s25.414-2.991,29.525-4.859
			c8.596,4.112,27.283,2.531,31.768-7.517c4.485-10.048,1.121-16.403,1.869-17.15c9.718-4.485,17.185-15.52,14.203-22.05
			c-3.815-8.353-6.728-12.707-21.678-11.212C80.875,12.127,74.009,1.857,59.17,2.176C42.861,2.526,36.365,6.52,27.786,18.854
			c-13.437,2.617-20.538,2.99-23.528,9.718S-3.589,51.369,19.582,58.097z"/>
		<g>
			<path d="M18.832,58.097c-1.098,13.768,5.923,26.215,20.357,27.964c8.958,1.085,16.193-1.321,23.916-5.533
				c1.057-0.577,2.933,0.571,4.028,0.865c1.838,0.496,3.765,0.676,5.657,0.814c4.787,0.349,9.707-0.452,14.187-2.127
				c8.691-3.25,12.079-11.925,11.522-20.766c-0.087-1.374-0.426-2.718-0.542-4.087c-0.009-0.11,5.102-3.139,5.827-3.703
				c3.851-2.993,6.877-7.159,8.512-11.738c2.165-6.064-2.065-13.619-7.059-17.049c-3.044-2.091-7.125-2.288-10.679-2.302
				c-4.004-0.015-5.252-0.598-7.928-3.521c-2.101-2.294-4.214-4.566-6.463-6.715C70.446,0.91,57.363-0.419,44.785,3.412
				c-5.056,1.54-9.187,4.799-12.695,8.654c-2.548,2.8-3.82,5.946-7.866,6.703c-3.959,0.741-7.939,1.391-11.812,2.518
				C4.591,23.563,1.559,30.617,0.966,38.23c-0.88,11.309,8.809,17.63,18.416,20.59c0.927,0.286,1.32-1.162,0.399-1.446
				C9.629,54.245,0.998,47.756,2.692,36.18c0.408-2.792,1.389-5.548,2.628-8.072c2.371-4.829,8.692-5.832,13.404-6.788
				c3.078-0.625,6.177-1.151,9.262-1.743c1.035-0.199,3.07-3.921,3.573-4.561c3.377-4.296,7.474-7.792,12.592-9.8
				c12.052-4.728,25.475-2.61,34.955,6.042c1.96,1.788,3.751,3.765,5.547,5.714c1.408,1.528,3.023,4.097,4.813,5.146
				c1.199,0.702,4.982-0.185,6.471-0.179c3.006,0.012,5.934,0.576,8.544,2.092c3.441,2,6.522,7.567,6.944,11.412
				c0.731,6.667-5.925,13.138-10.813,16.577c-2.266,1.594-4.443,1.419-4.015,4.345c0.917,6.272,0.438,13.387-3.975,18.363
				c-3.633,4.096-9.908,5.447-15.093,5.927c-2.629,0.244-5.298,0.09-7.905-0.286c-1.858-0.268-4.193-1.721-5.939-1.721
				c-0.95,0-2.266,1.094-3.061,1.54c-2.34,1.31-4.733,2.437-7.277,3.299c-7.519,2.55-17.235,1.972-24.045-2.214
				c-7.327-4.505-9.61-15.141-8.969-23.178C20.409,57.132,18.908,57.139,18.832,58.097z"/>
		</g>
	</g>
</g>
<g id="_x32__copy">
	<g>
		<path fill="#BEBEBE" d="M58.767,28.319c0,0,4.895,3.68,1.084,9.395c-3.81,5.715-5.788,9.507-8.407,10.936
			c-2.62,1.429-5.715,4.287-7.382,4.525c-1.667,0.238-7.383,4.524-4.525,10.716c2.858,6.192,5.756,3.334,10.618,3.334
			S60.97,65.683,67.4,67.883s14.807,2.055,14.62-7.716c-0.131-6.872-12.996-6.219-17.283-5.267
			c6.43-4.287,10.045-13.632,10.76-19.586s1.667-16.909-10.24-19.766s-20.15-2.143-26.507,7.859
			c-6.356,10.002,2.687,15.89,6.717,14.864c4.976-1.267,3.992-3.025,5.978-9.149C52.614,25.514,57.862,27.414,58.767,28.319z"/>
		<g>
			<path d="M58.395,28.69c5.895,4.744-2.014,14.613-5.943,18.578c-3.468,3.5-9.713,4.259-12.499,8.348
				c-2.655,3.898-1.94,8.463,1.393,11.78c1.181,1.175,3.04,1.054,4.529,0.866c3.33-0.42,6.637-0.599,9.986-0.869
				c4.28-0.345,8.261-0.002,12.376,1.308c2.303,0.734,4.741,0.974,7.14,0.756c3.597-0.328,6.529-3.019,6.977-6.64
				c1.223-9.878-10.711-9.835-17.757-8.423c0.135,0.32,0.27,0.64,0.405,0.96c8.624-6.267,12.468-18.389,11.153-28.746
				c-1.477-11.641-15.569-14.156-25.272-12.693c-8.04,1.212-20.26,13.818-12.751,21.792c2.696,2.863,5.836,3.847,9.507,2.378
				c1.077-0.431,2.021-1.342,2.444-2.427c0.467-1.199,0.763-2.434,1.081-3.68c0.898-3.524,4.497-5.336,7.338-3.206
				c0.542,0.407,1.065-0.506,0.53-0.907c-1.448-1.085-4.166-1.965-5.926-1.132c-2.896,1.371-2.924,5.159-3.749,7.911
				c-2.124,7.078-10.773,1.456-12.08-2.849c-2.067-6.808,6.032-14.31,11.713-16.331c5.107-1.817,11.04-0.58,16.127,0.591
				c5.936,1.366,9.361,5.614,10.108,11.497c1.216,9.584-2.889,21.181-10.753,26.896c-0.481,0.349-0.197,1.08,0.405,0.96
				c3.899-0.781,8.038-0.816,11.909,0.116c4.227,1.018,5.203,4.371,4.27,8.277c-0.861,3.605-4.428,4.663-7.627,4.709
				c-4.888,0.07-9.453-2.305-14.444-2.327c-4.992-0.022-9.938,1.014-14.891,1.174c-2.486-0.868-4.008-2.534-4.564-4.998
				c-0.939-2.551,0.317-5.025,1.901-6.862c1.252-1.452,3.028-1.764,4.63-2.619c3.391-1.81,6.899-4.264,9.243-7.334
				c3.461-4.534,10.104-12.55,3.834-17.596C58.616,27.528,57.868,28.266,58.395,28.69z"/>
		</g>
	</g>
</g>
</svg>
