<?xml version="1.0" encoding="utf-8"?>
<!-- Generator: Adobe Illustrator 17.0.2, SVG Export Plug-In . SVG Version: 6.00 Build 0)  -->
<!DOCTYPE svg PUBLIC "-//W3C//DTD SVG 1.1//EN" "http://www.w3.org/Graphics/SVG/1.1/DTD/svg11.dtd">
<svg version="1.1" id="Layer_1" xmlns="http://www.w3.org/2000/svg" xmlns:xlink="http://www.w3.org/1999/xlink" x="0px" y="0px"
	 width="113.644px" height="87.087px" viewBox="0 0 113.644 87.087" enable-background="new 0 0 113.644 87.087"
	 xml:space="preserve">
<g id="base">
	<g>
		<path fill="#00FFFF" d="M19.582,58.097c0,0-1.868,21.678,14.576,26.163s25.414-2.991,29.525-4.859
			c8.596,4.112,27.283,2.531,31.768-7.517c4.485-10.048,1.121-16.403,1.869-17.15c9.718-4.485,17.185-15.52,14.203-22.05
			c-3.815-8.353-6.728-12.707-21.678-11.212C80.875,12.127,74.009,1.857,59.17,2.176C42.861,2.526,36.365,6.52,27.786,18.854
			c-13.437,2.617-20.538,2.99-23.528,9.718S-3.589,51.369,19.582,58.097z"/>
		<g>
			<path d="M18.832,58.097c-1.098,13.768,5.923,26.215,20.357,27.964c8.958,1.085,16.193-1.321,23.916-5.533
				c1.057-0.577,2.933,0.571,4.028,0.865c1.838,0.496,3.765,0.676,5.657,0.814c4.787,0.349,9.707-0.452,14.187-2.127
				c8.691-3.25,12.079-11.925,11.522-20.766c-0.087-1.374-0.426-2.718-0.542-4.087c-0.009-0.11,5.102-3.139,5.827-3.703
				c3.851-2.993,6.877-7.159,8.512-11.738c2.165-6.064-2.065-13.619-7.059-17.049c-3.044-2.091-7.125-2.288-10.679-2.302
				c-4.004-0.015-5.252-0.598-7.928-3.521c-2.101-2.294-4.214-4.566-6.463-6.715C70.446,0.91,57.363-0.419,44.785,3.412
				c-5.056,1.54-9.187,4.799-12.695,8.654c-2.548,2.8-3.82,5.946-7.866,6.703c-3.959,0.741-7.939,1.391-11.812,2.518
				C4.591,23.563,1.559,30.617,0.966,38.23c-0.88,11.309,8.809,17.63,18.416,20.59c0.927,0.286,1.32-1.162,0.399-1.446
				C9.629,54.245,0.998,47.756,2.692,36.18c0.408-2.792,1.389-5.548,2.628-8.072c2.371-4.829,8.692-5.832,13.404-6.788
				c3.078-0.625,6.177-1.151,9.262-1.743c1.035-0.199,3.07-3.921,3.573-4.561c3.377-4.296,7.474-7.792,12.592-9.8
				c12.052-4.728,25.475-2.61,34.955,6.042c1.96,1.788,3.751,3.765,5.547,5.714c1.408,1.528,3.023,4.097,4.813,5.146
				c1.199,0.702,4.982-0.185,6.471-0.179c3.006,0.012,5.934,0.576,8.544,2.092c3.441,2,6.522,7.567,6.944,11.412
				c0.731,6.667-5.925,13.138-10.813,16.577c-2.266,1.594-4.443,1.419-4.015,4.345c0.917,6.272,0.438,13.387-3.975,18.363
				c-3.633,4.096-9.908,5.447-15.093,5.927c-2.629,0.244-5.298,0.09-7.905-0.286c-1.858-0.268-4.193-1.721-5.939-1.721
				c-0.95,0-2.266,1.094-3.061,1.54c-2.34,1.31-4.733,2.437-7.277,3.299c-7.519,2.55-17.235,1.972-24.045-2.214
				c-7.327-4.505-9.61-15.141-8.969-23.178C20.409,57.132,18.908,57.139,18.832,58.097z"/>
		</g>
	</g>
</g>
<g id="_x31_">
	<g>
		<path fill="#FF0000" d="M51.186,36.612c0,0,0.476,14.051-1.429,20.48c-1.905,6.43-4.048,14.05,3.334,13.098
			c7.382-0.953,15.003,2.857,15.003-7.859s-1.667-26.91-1.667-34.054s1.905-14.288-6.668-13.335
			c-8.573,0.952-9.614,1.191-11.832,4.763c-2.218,3.572-10.79,9.525-14.839,12.621s-2.857,10.241,0,12.384
			c2.857,2.143,6.43,2.382,9.525,0C45.709,42.328,51.186,36.612,51.186,36.612z"/>
		<g>
			<path d="M50.661,36.612c0.259,8.228-0.334,16.059-2.443,24.019c-0.6,2.265-1.783,6.558,0.073,8.61
				c2.299,2.541,6.153,1.27,9.194,1.32c2.567,0.042,6.312,0.655,8.515-1.118c2.947-2.37,2.644-6.341,2.587-9.782
				c-0.187-11.294-1.955-22.597-1.578-33.893c0.091-2.721,0.891-7.242-1.175-9.537c-2.69-2.99-7.135-1.731-10.634-1.261
				c-2.666,0.358-4.983,0.901-6.74,3.024c-3.611,4.363-7.337,7.671-11.922,11.102c-3.106,2.324-5.789,3.895-6.506,7.944
				c-0.505,2.853,0.576,6.097,2.685,8.04c6.72,6.196,14.665-3.759,18.841-8.097c0.469-0.488-0.272-1.231-0.742-0.742
				c-4.585,4.764-16.083,16.534-19.575,4.151c-2.133-7.563,9.624-12.941,14.373-17.273c1.778-1.622,2.822-3.718,4.501-5.383
				c2.404-2.384,7.975-2.168,11.051-2.355c7.228-0.44,4.719,14.674,4.978,19.403c0.429,7.829,1.096,15.64,1.359,23.478
				c0.138,4.128,0.867,9.955-4.281,11.154c-2.843,0.662-6.12,0.002-9.022,0.14c-9.812,0.467-3.626-12.252-2.954-17.773
				c0.609-5.002,0.624-10.137,0.466-15.17C51.69,35.937,50.64,35.935,50.661,36.612z"/>
		</g>
	</g>
</g>
</svg>
