<?xml version="1.0" encoding="utf-8"?>
<!-- Generator: Adobe Illustrator 17.0.2, SVG Export Plug-In . SVG Version: 6.00 Build 0)  -->
<!DOCTYPE svg PUBLIC "-//W3C//DTD SVG 1.1//EN" "http://www.w3.org/Graphics/SVG/1.1/DTD/svg11.dtd">
<svg version="1.1" id="Layer_1" xmlns="http://www.w3.org/2000/svg" xmlns:xlink="http://www.w3.org/1999/xlink" x="0px" y="0px"
	 width="113.644px" height="87.087px" viewBox="0 0 113.644 87.087" enable-background="new 0 0 113.644 87.087"
	 xml:space="preserve">
<g id="base">
	<g>
		<path fill="#00FFFF" d="M19.582,58.097c0,0-1.868,21.678,14.576,26.163s25.414-2.991,29.525-4.859
			c8.596,4.112,27.283,2.531,31.768-7.517c4.485-10.048,1.121-16.403,1.869-17.15c9.718-4.485,17.185-15.52,14.203-22.05
			c-3.815-8.353-6.728-12.707-21.678-11.212C80.875,12.127,74.009,1.857,59.17,2.176C42.861,2.526,36.365,6.52,27.786,18.854
			c-13.437,2.617-20.538,2.99-23.528,9.718S-3.589,51.369,19.582,58.097z"/>
		<g>
			<path d="M18.832,58.097c-1.098,13.768,5.923,26.215,20.357,27.964c8.958,1.085,16.193-1.321,23.916-5.533
				c1.057-0.577,2.933,0.571,4.028,0.865c1.838,0.496,3.765,0.676,5.657,0.814c4.787,0.349,9.707-0.452,14.187-2.127
				c8.691-3.25,12.079-11.925,11.522-20.766c-0.087-1.374-0.426-2.718-0.542-4.087c-0.009-0.11,5.102-3.139,5.827-3.703
				c3.851-2.993,6.877-7.159,8.512-11.738c2.165-6.064-2.065-13.619-7.059-17.049c-3.044-2.091-7.125-2.288-10.679-2.302
				c-4.004-0.015-5.252-0.598-7.928-3.521c-2.101-2.294-4.214-4.566-6.463-6.715C70.446,0.91,57.363-0.419,44.785,3.412
				c-5.056,1.54-9.187,4.799-12.695,8.654c-2.548,2.8-3.82,5.946-7.866,6.703c-3.959,0.741-7.939,1.391-11.812,2.518
				C4.591,23.563,1.559,30.617,0.966,38.23c-0.88,11.309,8.809,17.63,18.416,20.59c0.927,0.286,1.32-1.162,0.399-1.446
				C9.629,54.245,0.998,47.756,2.692,36.18c0.408-2.792,1.389-5.548,2.628-8.072c2.371-4.829,8.692-5.832,13.404-6.788
				c3.078-0.625,6.177-1.151,9.262-1.743c1.035-0.199,3.07-3.921,3.573-4.561c3.377-4.296,7.474-7.792,12.592-9.8
				c12.052-4.728,25.475-2.61,34.955,6.042c1.96,1.788,3.751,3.765,5.547,5.714c1.408,1.528,3.023,4.097,4.813,5.146
				c1.199,0.702,4.982-0.185,6.471-0.179c3.006,0.012,5.934,0.576,8.544,2.092c3.441,2,6.522,7.567,6.944,11.412
				c0.731,6.667-5.925,13.138-10.813,16.577c-2.266,1.594-4.443,1.419-4.015,4.345c0.917,6.272,0.438,13.387-3.975,18.363
				c-3.633,4.096-9.908,5.447-15.093,5.927c-2.629,0.244-5.298,0.09-7.905-0.286c-1.858-0.268-4.193-1.721-5.939-1.721
				c-0.95,0-2.266,1.094-3.061,1.54c-2.34,1.31-4.733,2.437-7.277,3.299c-7.519,2.55-17.235,1.972-24.045-2.214
				c-7.327-4.505-9.61-15.141-8.969-23.178C20.409,57.132,18.908,57.139,18.832,58.097z"/>
		</g>
	</g>
</g>
<g id="_x37_">
	<g>
		<path fill="#FF0000" d="M43.422,18.295c-1.675,0.231-4.051,1.87-4.778,3.117s-1.039,3.427-0.727,6.128s0,4.155,1.558,4.675
			c1.558,0.519,15.894-0.831,18.179-0.727s2.805,1.558,1.974,3.22s-9.973,14.335-12.154,18.075
			c-2.181,3.739-5.505,11.011-3.947,13.712c1.558,2.701,7.791,4.323,12.777,2.369c4.986-1.954,4.779-4.655,5.817-7.459
			c1.039-2.805,4.57-17.656,7.064-21.138c2.493-3.481,7.064-9.091,7.375-13.35s0.831-8.83-2.909-9.349
			C69.911,17.049,46.434,17.88,43.422,18.295z"/>
		<g>
			<path d="M43.283,17.789c-2.715,0.744-5.447,2.526-5.823,5.541c-0.223,1.787-1.108,8.777,1.876,9.392
				c2.829,0.582,6.11-0.01,8.956-0.189c1.732-0.109,13.372-1.923,10.211,3.011c-4.608,7.191-10.255,13.781-13.821,21.591
				c-0.968,2.119-3.402,7.258-1.608,9.625c2.421,3.195,6.677,3.683,10.422,3.355c8.539-0.748,9.416-9.366,11.284-15.994
				c1.234-4.378,2.362-9.045,4.527-13.072c2.58-4.799,6.879-8.341,7.759-13.992c0.342-2.194,1.041-7.42-1.239-9.044
				c-2.244-1.598-5.43-1.139-8.053-1.134c-7.871,0.014-15.819,0.174-23.667,0.818c-0.229,0.019-0.457,0.043-0.685,0.073
				c-0.664,0.079-0.671,1.13,0,1.05c5.265-0.629,10.667-0.597,15.96-0.745c3.38-0.095,6.762-0.155,10.144-0.144
				c1.109,0.004,2.218,0.028,3.326,0.088c4.092,0.221,3.445,4.846,3.288,7.473c-0.313,5.261-3.676,9.422-6.683,13.51
				c-1.758,2.39-2.68,5.103-3.61,7.899c-1.904,5.726-2.878,17.369-8.331,20.831c-2.758,1.751-6.331,1.676-9.385,1.036
				c-4.861-1.02-4.693-4.936-3.528-8.6c1.196-3.761,3.282-7.179,5.454-10.44c2.083-3.128,4.249-6.201,6.387-9.291
				c1.164-1.684,3.009-3.626,3.689-5.589c1.698-4.907-4.608-3.836-7.521-3.649c-3.461,0.222-6.92,0.483-10.386,0.595
				c-2.712,0.088-3.529-1.414-3.784-4.253c-0.372-4.146,0.782-7.551,5.12-8.739C44.214,18.623,43.937,17.61,43.283,17.789z"/>
		</g>
	</g>
</g>
</svg>
