<?xml version="1.0" encoding="utf-8"?>
<!-- Generator: Adobe Illustrator 17.0.2, SVG Export Plug-In . SVG Version: 6.00 Build 0)  -->
<!DOCTYPE svg PUBLIC "-//W3C//DTD SVG 1.1//EN" "http://www.w3.org/Graphics/SVG/1.1/DTD/svg11.dtd">
<svg version="1.1" id="Layer_1" xmlns="http://www.w3.org/2000/svg" xmlns:xlink="http://www.w3.org/1999/xlink" x="0px" y="0px"
	 width="113.644px" height="87.087px" viewBox="0 0 113.644 87.087" enable-background="new 0 0 113.644 87.087"
	 xml:space="preserve">
<g id="base">
	<g>
		<path fill="#00FFFF" d="M19.582,58.097c0,0-1.868,21.678,14.576,26.163s25.414-2.991,29.525-4.859
			c8.596,4.112,27.283,2.531,31.768-7.517c4.485-10.048,1.121-16.403,1.869-17.15c9.718-4.485,17.185-15.52,14.203-22.05
			c-3.815-8.353-6.728-12.707-21.678-11.212C80.875,12.127,74.009,1.857,59.17,2.176C42.861,2.526,36.365,6.52,27.786,18.854
			c-13.437,2.617-20.538,2.99-23.528,9.718S-3.589,51.369,19.582,58.097z"/>
		<g>
			<path d="M18.832,58.097c-1.098,13.768,5.923,26.215,20.357,27.964c8.958,1.085,16.193-1.321,23.916-5.533
				c1.057-0.577,2.933,0.571,4.028,0.865c1.838,0.496,3.765,0.676,5.657,0.814c4.787,0.349,9.707-0.452,14.187-2.127
				c8.691-3.25,12.079-11.925,11.522-20.766c-0.087-1.374-0.426-2.718-0.542-4.087c-0.009-0.11,5.102-3.139,5.827-3.703
				c3.851-2.993,6.877-7.159,8.512-11.738c2.165-6.064-2.065-13.619-7.059-17.049c-3.044-2.091-7.125-2.288-10.679-2.302
				c-4.004-0.015-5.252-0.598-7.928-3.521c-2.101-2.294-4.214-4.566-6.463-6.715C70.446,0.91,57.363-0.419,44.785,3.412
				c-5.056,1.54-9.187,4.799-12.695,8.654c-2.548,2.8-3.82,5.946-7.866,6.703c-3.959,0.741-7.939,1.391-11.812,2.518
				C4.591,23.563,1.559,30.617,0.966,38.23c-0.88,11.309,8.809,17.63,18.416,20.59c0.927,0.286,1.32-1.162,0.399-1.446
				C9.629,54.245,0.998,47.756,2.692,36.18c0.408-2.792,1.389-5.548,2.628-8.072c2.371-4.829,8.692-5.832,13.404-6.788
				c3.078-0.625,6.177-1.151,9.262-1.743c1.035-0.199,3.07-3.921,3.573-4.561c3.377-4.296,7.474-7.792,12.592-9.8
				c12.052-4.728,25.475-2.61,34.955,6.042c1.96,1.788,3.751,3.765,5.547,5.714c1.408,1.528,3.023,4.097,4.813,5.146
				c1.199,0.702,4.982-0.185,6.471-0.179c3.006,0.012,5.934,0.576,8.544,2.092c3.441,2,6.522,7.567,6.944,11.412
				c0.731,6.667-5.925,13.138-10.813,16.577c-2.266,1.594-4.443,1.419-4.015,4.345c0.917,6.272,0.438,13.387-3.975,18.363
				c-3.633,4.096-9.908,5.447-15.093,5.927c-2.629,0.244-5.298,0.09-7.905-0.286c-1.858-0.268-4.193-1.721-5.939-1.721
				c-0.95,0-2.266,1.094-3.061,1.54c-2.34,1.31-4.733,2.437-7.277,3.299c-7.519,2.55-17.235,1.972-24.045-2.214
				c-7.327-4.505-9.61-15.141-8.969-23.178C20.409,57.132,18.908,57.139,18.832,58.097z"/>
		</g>
	</g>
</g>
<g id="_x39_">
	<g>
		<path fill="#FF0000" d="M78.138,34.605c-1.143-17.244-13.089-21.71-25.347-20.048s-13.48,9.775-14.023,12.465
			c-2.182,10.803,0.416,14.75,4.675,18.698s13.712,2.077,18.179,0.312c0.312,1.351,0.312,5.401-2.94,8.726
			c-3.252,3.324-9.837,1.558-14.719,1.974s-6.856,5.817,0.312,11.427c7.168,5.609,16.517,1.558,25.554-2.909
			C78.865,60.782,79.281,51.849,78.138,34.605z M62.244,33.774c-1.039,5.505-8.31,5.402-9.868,2.078s-1.176-7.573,1.038-9.037
			C60.166,22.348,63.283,28.269,62.244,33.774z"/>
		<g>
			<path d="M78.663,34.605c-0.69-7.866-3.763-15.963-11.651-19.1c-7.001-2.784-17.81-2.974-23.814,2.257
				c-5.197,4.528-6.348,12.647-5.516,19.157c0.975,7.623,7.588,11.837,14.771,11.625c2.134-0.063,4.274-0.529,6.336-1.04
				c0.563-0.14,2.386-1.285,2.436-0.006c0.103,2.636-1.289,4.956-2.916,6.889c-3.994,4.743-11.795-0.282-16.509,2.361
				c-8.016,4.494,2.76,13.129,7.722,14.392c4.591,1.169,10.018-0.686,14.17-2.473c3.996-1.721,8.874-3.404,11.594-7.057
				C80.793,54.217,79.211,43.154,78.663,34.605c-0.043-0.672-1.093-0.676-1.05,0c0.477,7.44,1.364,15.572-1.133,22.754
				c-1.187,3.412-3.799,5.792-6.917,7.436c-5.261,2.775-10.988,5.272-16.994,5.573c-3.633,0.182-6.647-1.489-9.322-3.779
				c-2.793-2.391-5.068-7.509-0.144-9.189c3.551-1.211,7.858,0.515,11.542-0.24c5.168-1.06,8.285-6.068,7.484-11.268
				c-0.041-0.267-0.399-0.458-0.646-0.367c-7.713,2.856-16.27,3.355-21.175-4.272c-3.38-5.255-2.119-14.243,0.86-19.575
				c3.951-7.073,14.451-7.701,21.521-6.416c9.717,1.766,14.127,10.229,14.926,19.342C77.672,35.274,78.722,35.28,78.663,34.605z"/>
			<path d="M61.738,33.635c-0.616,2.715-2.793,4.14-5.515,3.983c-3.289-0.19-4.231-3.342-4.266-6.179
				c-0.044-3.535,3.44-6.458,6.96-5.483C61.93,26.789,62.147,31.186,61.738,33.635c-0.111,0.662,0.901,0.946,1.012,0.279
				c0.498-2.981,0.14-7.549-3.204-8.837c-3.734-1.438-7.898,1.434-8.54,5.159c-0.598,3.471,0.697,7.443,4.366,8.309
				c3.393,0.801,6.621-1.297,7.378-4.631C62.9,33.254,61.888,32.974,61.738,33.635z"/>
		</g>
	</g>
</g>
</svg>
