<?xml version="1.0" encoding="utf-8"?>
<!-- Generator: Adobe Illustrator 17.0.2, SVG Export Plug-In . SVG Version: 6.00 Build 0)  -->
<!DOCTYPE svg PUBLIC "-//W3C//DTD SVG 1.1//EN" "http://www.w3.org/Graphics/SVG/1.1/DTD/svg11.dtd">
<svg version="1.1" id="Layer_1" xmlns="http://www.w3.org/2000/svg" xmlns:xlink="http://www.w3.org/1999/xlink" x="0px" y="0px"
	 width="113.644px" height="87.087px" viewBox="0 0 113.644 87.087" enable-background="new 0 0 113.644 87.087"
	 xml:space="preserve">
<g id="base">
	<g>
		<path fill="#00FFFF" d="M19.582,58.097c0,0-1.868,21.678,14.576,26.163s25.414-2.991,29.525-4.859
			c8.596,4.112,27.283,2.531,31.768-7.517c4.485-10.048,1.121-16.403,1.869-17.15c9.718-4.485,17.185-15.52,14.203-22.05
			c-3.815-8.353-6.728-12.707-21.678-11.212C80.875,12.127,74.009,1.857,59.17,2.176C42.861,2.526,36.365,6.52,27.786,18.854
			c-13.437,2.617-20.538,2.99-23.528,9.718S-3.589,51.369,19.582,58.097z"/>
		<g>
			<path d="M18.832,58.097c-1.098,13.768,5.923,26.215,20.357,27.964c8.958,1.085,16.193-1.321,23.916-5.533
				c1.057-0.577,2.933,0.571,4.028,0.865c1.838,0.496,3.765,0.676,5.657,0.814c4.787,0.349,9.707-0.452,14.187-2.127
				c8.691-3.25,12.079-11.925,11.522-20.766c-0.087-1.374-0.426-2.718-0.542-4.087c-0.009-0.11,5.102-3.139,5.827-3.703
				c3.851-2.993,6.877-7.159,8.512-11.738c2.165-6.064-2.065-13.619-7.059-17.049c-3.044-2.091-7.125-2.288-10.679-2.302
				c-4.004-0.015-5.252-0.598-7.928-3.521c-2.101-2.294-4.214-4.566-6.463-6.715C70.446,0.91,57.363-0.419,44.785,3.412
				c-5.056,1.54-9.187,4.799-12.695,8.654c-2.548,2.8-3.82,5.946-7.866,6.703c-3.959,0.741-7.939,1.391-11.812,2.518
				C4.591,23.563,1.559,30.617,0.966,38.23c-0.88,11.309,8.809,17.63,18.416,20.59c0.927,0.286,1.32-1.162,0.399-1.446
				C9.629,54.245,0.998,47.756,2.692,36.18c0.408-2.792,1.389-5.548,2.628-8.072c2.371-4.829,8.692-5.832,13.404-6.788
				c3.078-0.625,6.177-1.151,9.262-1.743c1.035-0.199,3.07-3.921,3.573-4.561c3.377-4.296,7.474-7.792,12.592-9.8
				c12.052-4.728,25.475-2.61,34.955,6.042c1.96,1.788,3.751,3.765,5.547,5.714c1.408,1.528,3.023,4.097,4.813,5.146
				c1.199,0.702,4.982-0.185,6.471-0.179c3.006,0.012,5.934,0.576,8.544,2.092c3.441,2,6.522,7.567,6.944,11.412
				c0.731,6.667-5.925,13.138-10.813,16.577c-2.266,1.594-4.443,1.419-4.015,4.345c0.917,6.272,0.438,13.387-3.975,18.363
				c-3.633,4.096-9.908,5.447-15.093,5.927c-2.629,0.244-5.298,0.09-7.905-0.286c-1.858-0.268-4.193-1.721-5.939-1.721
				c-0.95,0-2.266,1.094-3.061,1.54c-2.34,1.31-4.733,2.437-7.277,3.299c-7.519,2.55-17.235,1.972-24.045-2.214
				c-7.327-4.505-9.61-15.141-8.969-23.178C20.409,57.132,18.908,57.139,18.832,58.097z"/>
		</g>
	</g>
</g>
<g id="_x35_">
	<g>
		<path fill="#FF0000" d="M49.781,44.876c0.79-0.277,7.583-2.182,7.583,4.882s-3.221,9.972-10.284,6.025s-11.634,1.04-10.803,5.09
			c0.831,4.051,6.025,11.53,17.036,11.115s22.645-6.129,23.061-18.594c0.415-12.465-5.914-16.829-20.097-16.621
			c-0.367-5.817,0.178-6.024,0.009-8.622c6.999,0.104,13.959,0,16.452,0s4.778-7.999,1.662-10.596s-6.657-1.704-11.027-1.843
			c-2.491-0.08-13.484-0.771-17.332-0.546c-2.295,0.135-4.467-0.623-4.467,6.856S41.262,39.681,41.47,42.07
			C41.679,44.461,43.86,46.954,49.781,44.876z"/>
		<g>
			<path d="M49.921,45.383c1.373-0.434,2.751-0.52,4.166-0.225c4.727,0.986,3.113,10.353-0.475,11.738
				c-4.796,1.851-9.563-5.653-14.698-2.292c-6.232,4.079-1.927,11.055,2.564,14.553c7.121,5.546,18.086,3.626,25.513-0.197
				c8.147-4.194,10.964-12.807,9.496-21.448c-1.28-7.535-7.935-10.324-14.788-11.079c-3.444-0.379-5.037,0.186-5.022-3.902
				c0.006-1.569-0.456-3.854,1.512-3.83c3.423,0.042,6.846,0.023,10.269,0.003c1.22-0.007,4.004,0.542,5.113-0.234
				c4.991-3.493,3.479-12.386-2.879-13.126c-4.461-0.519-9.124-0.241-13.63-0.459c-4.21-0.203-8.478-0.488-12.689-0.167
				c-2.21,0.169-2.796,2.217-3.135,4.07c-0.96,5.24-0.269,11.228-0.338,16.553c-0.037,2.843-0.674,6.491,0.884,9.048
				C43.436,47.1,47.572,46.075,49.921,45.383c0.648-0.191,0.372-1.204-0.279-1.012c-5.356,1.578-7.698-0.431-7.717-5.387
				c-0.014-3.669,0.081-7.339,0.13-11.008c0.039-2.916-1.236-11.935,2.859-12.248c2.382-0.182,4.8-0.071,7.184,0.001
				c5.755,0.175,11.508,0.343,17.259,0.509c7.775,0.225,7.997,11.351,0.435,11.406c-4.502,0.032-9.004,0.039-13.506-0.017
				c-0.278-0.003-0.537,0.241-0.525,0.525c0.117,2.875-0.16,5.733-0.009,8.622c0.015,0.285,0.228,0.526,0.525,0.525
				c5.586-0.02,11.807,0.252,16.118,4.269c4.301,4.007,4.067,11.861,2.527,16.966C70.74,72.399,47.13,76.093,38.695,64.875
				c-1.657-2.204-2.568-4.811-1.283-7.453c2.739-5.632,9.456-0.719,13.31,0.436c2.7,0.809,5.596-0.483,6.449-3.245
				c1.849-5.985-0.308-12.523-7.53-10.242C48.998,44.573,49.273,45.587,49.921,45.383z"/>
		</g>
	</g>
</g>
</svg>
