<?xml version="1.0" encoding="utf-8"?>
<!-- Generator: Adobe Illustrator 17.0.2, SVG Export Plug-In . SVG Version: 6.00 Build 0)  -->
<!DOCTYPE svg PUBLIC "-//W3C//DTD SVG 1.1//EN" "http://www.w3.org/Graphics/SVG/1.1/DTD/svg11.dtd">
<svg version="1.1" id="Layer_1" xmlns="http://www.w3.org/2000/svg" xmlns:xlink="http://www.w3.org/1999/xlink" x="0px" y="0px"
	 width="80.5px" height="65.5px" viewBox="0 0 80.5 65.5" enable-background="new 0 0 80.5 65.5" xml:space="preserve">
<g id="_x31_0">
	<g>
		<g>
			<path fill="#FF0000" d="M20.931,29.583c0,0,0.42,12.119-1.263,17.665s-3.576,12.119,2.945,11.297
				c6.522-0.822,13.254,2.465,13.254-6.778s-1.473-23.21-1.473-29.372s1.683-12.323-5.891-11.502S20.01,11.92,18.05,15.001
				S8.517,23.216,4.94,25.887s-2.524,8.833,0,10.681s5.68,2.054,8.415,0C16.091,34.512,20.931,29.583,20.931,29.583z"/>
			<g>
				<path d="M20.406,29.583c0.248,7.79-0.837,14.786-2.537,22.334c-1.838,8.161,4.148,6.882,10.079,7.062
					c7.896,0.24,8.578-4.097,8.37-11.226c-0.282-9.666-1.694-19.324-1.284-29c0.352-8.304-3.405-8.871-10.944-7.854
					c-2.121,0.286-4.296,0.8-5.633,2.606c-3.024,4.084-6.932,6.937-11.025,9.916c-2.284,1.663-4.993,3.233-5.233,6.388
					c-0.178,2.344,0.181,5.836,2.477,7.211c6.897,4.13,12.07-2.448,16.625-7.066c0.476-0.482-0.266-1.225-0.742-0.742
					c-3.927,3.982-13.691,14.18-17.13,3.863c-2.195-6.586,8.919-11.686,13.054-15.485c1.515-1.392,2.388-3.441,4.07-4.614
					c2.38-1.66,6.637-1.49,9.345-1.632c6.06-0.318,4.015,13.797,4.24,17.579c0.401,6.739,0.973,13.465,1.169,20.215
					c0.128,4.387-0.038,8.524-5.399,8.809c-2.437,0.129-4.854-0.155-7.296,0.073c-7.344,0.687-1.933-12.046-1.483-16.175
					c0.441-4.051,0.455-8.191,0.325-12.261C21.434,28.907,20.384,28.905,20.406,29.583z"/>
			</g>
		</g>
		<g>
			<path fill="#FF0000" d="M66.86,11.621c-3.992-1.607-12.562-2.927-20.032,4.713c-5.289,5.409-7.28,11.16-5.872,25.636
				c1.408,14.477,13.349,17.29,19.07,16.285c5.722-1.004,18.291-6.41,17.279-22.947S72.582,13.924,66.86,11.621z M64.589,39.296
				c-0.567,6.296-4.42,6.875-7.674,6.516c-3.254-0.358-3.685-5.38-3.943-9.562s0.076-6.235,2.01-9.158
				c2.556-3.864,5.169-4.67,8.045-2.924C65.903,25.916,65.156,33,64.589,39.296z"/>
			<g>
				<path d="M67,11.115C54.846,6.58,42.668,15.583,40.453,27.673C38.22,39.87,40.731,56.002,54.892,58.712
					c9.436,1.806,18.771-5.435,21.848-13.939c2.591-7.161,0.999-16.522-1.129-23.633c-1.36-4.543-4.095-8.105-8.486-9.973
					c-0.616-0.262-1.151,0.642-0.53,0.907c9.804,4.17,10.734,18.458,10.129,27.597c-0.649,9.792-9.497,18.282-19.376,18.236
					C42.572,57.84,40.38,41.546,41.203,30.092c0.895-12.467,13.092-22.601,25.518-17.965C67.357,12.365,67.629,11.349,67,11.115z"/>
				<path d="M64.083,39.157c-0.341,2.462-0.959,4.8-3.508,5.875c-1.841,0.777-4.613,0.381-5.764-1.461
					c-1.862-2.98-1.674-8.888-1.15-12.232c0.355-2.264,1.922-4.359,3.406-6.004c3.538-3.92,6.998,0.015,7.435,3.538
					c0.423,3.413-0.131,7.021-0.438,10.422c-0.061,0.675,0.99,0.669,1.05,0c0.421-4.659,2.481-13.372-2.772-16.067
					c-5.186-2.661-9.241,4.945-9.864,8.918c-0.447,2.852-0.669,12.905,3.478,13.963c5.208,1.33,8.443-1.645,9.139-6.674
					C65.187,38.774,64.175,38.488,64.083,39.157z"/>
			</g>
		</g>
	</g>
</g>
</svg>
