<?xml version="1.0" encoding="utf-8"?>
<!-- Generator: Adobe Illustrator 17.0.2, SVG Export Plug-In . SVG Version: 6.00 Build 0)  -->
<!DOCTYPE svg PUBLIC "-//W3C//DTD SVG 1.1//EN" "http://www.w3.org/Graphics/SVG/1.1/DTD/svg11.dtd">
<svg version="1.1" id="Layer_1" xmlns="http://www.w3.org/2000/svg" xmlns:xlink="http://www.w3.org/1999/xlink" x="0px" y="0px"
	 width="113.644px" height="87.087px" viewBox="0 0 113.644 87.087" enable-background="new 0 0 113.644 87.087"
	 xml:space="preserve">
<g id="_x36_">
	<g>
		<path fill="#FF0000" d="M50.925,36.629c1.662-3.636,2.389-6.753,6.025-7.895c3.636-1.143,10.18,1.246,12.465-4.467
			c2.285-5.713-0.727-9.558-3.532-10.7c-0.967-0.394-8.311-2.389-17.14,4.051S29.838,36.837,36.798,56.366
			s39.162,16.829,40.928,1.247C79.492,42.03,75.648,32.37,50.925,36.629z M64.326,57.093c-3.74,3.843-11.946,3.012-13.608-1.87
			c-1.662-4.882,2.748-9.471,3.843-10.076c3.947-2.181,7.538-3.157,10.492,0C68.065,48.367,68.065,53.249,64.326,57.093z"/>
		<g>
			<path d="M51.379,36.894c1.53-3.483,2.808-7.38,7.287-7.942c1.71-0.215,3.454,0.025,5.163-0.231
				c4.363-0.653,6.185-3.23,6.872-7.511c1.079-6.715-5.744-9.414-11.129-8.631c-9.382,1.363-17.166,8.448-21.797,16.426
				c-5.195,8.95-4.761,20.352-0.608,29.601c5.663,12.61,25.953,16.195,36.286,7.42c8.924-7.578,7.051-26.249-4.64-29.997
				c-5.715-1.832-12.253-0.844-18.029,0.095c-0.667,0.108-0.383,1.12,0.279,1.012c7.217-1.174,16.922-2.591,22.823,2.916
				c4.625,4.317,4.057,12.57,3.211,18.229c-0.982,6.569-7.991,9.838-13.775,10.959c-7.079,1.372-14.864-0.428-20.462-4.969
				c-7.35-5.963-8.853-17.674-7.272-26.411c1.589-8.782,7.79-15.951,14.96-20.838c3.769-2.569,8.421-3.809,12.95-3.436
				c7.348,0.604,8.523,12.078,1.055,13.973c-3.038,0.771-6.012-0.057-8.979,1.188c-2.896,1.216-3.973,5.044-5.104,7.618
				C50.202,36.977,51.107,37.512,51.379,36.894z"/>
			<path d="M63.954,56.721c-2.615,2.444-6.49,2.845-9.727,1.47c-4.494-1.909-3.697-7.158-1.443-10.483
				c1.939-2.861,6.087-4.627,9.447-3.817c2.36,0.569,3.816,3.149,4.347,5.307C67.266,51.993,65.752,54.73,63.954,56.721
				c-0.452,0.501,0.288,1.246,0.742,0.742c3.638-4.031,4.179-9.389,0.085-13.303c-3.527-3.371-9.764-0.809-12.444,2.41
				c-2.594,3.117-3.915,8.689-0.19,11.542c3.671,2.812,9.189,2.491,12.55-0.65C65.192,57.001,64.448,56.26,63.954,56.721z"/>
		</g>
	</g>
</g>
</svg>
