<?xml version="1.0" encoding="utf-8"?>
<!-- Generator: Adobe Illustrator 17.0.2, SVG Export Plug-In . SVG Version: 6.00 Build 0)  -->
<!DOCTYPE svg PUBLIC "-//W3C//DTD SVG 1.1//EN" "http://www.w3.org/Graphics/SVG/1.1/DTD/svg11.dtd">
<svg version="1.1" id="Layer_1" xmlns="http://www.w3.org/2000/svg" xmlns:xlink="http://www.w3.org/1999/xlink" x="0px" y="0px"
	 width="113.644px" height="87.087px" viewBox="0 0 113.644 87.087" enable-background="new 0 0 113.644 87.087"
	 xml:space="preserve">
<g id="_x37_">
	<g>
		<path fill="#FF0000" d="M43.422,18.295c-1.675,0.231-4.051,1.87-4.778,3.117s-1.039,3.427-0.727,6.128s0,4.155,1.558,4.675
			c1.558,0.519,15.894-0.831,18.179-0.727s2.805,1.558,1.974,3.22s-9.973,14.335-12.154,18.075
			c-2.181,3.739-5.505,11.011-3.947,13.712c1.558,2.701,7.791,4.323,12.777,2.369c4.986-1.954,4.779-4.655,5.817-7.459
			c1.039-2.805,4.57-17.656,7.064-21.138c2.493-3.481,7.064-9.091,7.375-13.35s0.831-8.83-2.909-9.349
			C69.911,17.049,46.434,17.88,43.422,18.295z"/>
		<g>
			<path d="M43.283,17.789c-2.715,0.744-5.447,2.526-5.823,5.541c-0.223,1.787-1.108,8.777,1.876,9.392
				c2.829,0.582,6.11-0.01,8.956-0.189c1.732-0.109,13.372-1.923,10.211,3.011c-4.608,7.191-10.255,13.781-13.821,21.591
				c-0.968,2.119-3.402,7.258-1.608,9.625c2.421,3.195,6.677,3.683,10.422,3.355c8.539-0.748,9.416-9.366,11.284-15.994
				c1.234-4.378,2.362-9.045,4.527-13.072c2.58-4.799,6.879-8.341,7.759-13.992c0.342-2.194,1.041-7.42-1.239-9.044
				c-2.244-1.598-5.43-1.139-8.053-1.134c-7.871,0.014-15.819,0.174-23.667,0.818c-0.229,0.019-0.457,0.043-0.685,0.073
				c-0.664,0.079-0.671,1.13,0,1.05c5.265-0.629,10.667-0.597,15.96-0.745c3.38-0.095,6.762-0.155,10.144-0.144
				c1.109,0.004,2.218,0.028,3.326,0.088c4.092,0.221,3.445,4.846,3.288,7.473c-0.313,5.261-3.676,9.422-6.683,13.51
				c-1.758,2.39-2.68,5.103-3.61,7.899c-1.904,5.726-2.878,17.369-8.331,20.831c-2.758,1.751-6.331,1.676-9.385,1.036
				c-4.861-1.02-4.693-4.936-3.528-8.6c1.196-3.761,3.282-7.179,5.454-10.44c2.083-3.128,4.249-6.201,6.387-9.291
				c1.164-1.684,3.009-3.626,3.689-5.589c1.698-4.907-4.608-3.836-7.521-3.649c-3.461,0.222-6.92,0.483-10.386,0.595
				c-2.712,0.088-3.529-1.414-3.784-4.253c-0.372-4.146,0.782-7.551,5.12-8.739C44.214,18.623,43.937,17.61,43.283,17.789z"/>
		</g>
	</g>
</g>
</svg>
