<?xml version="1.0" encoding="utf-8"?>
<!-- Generator: Adobe Illustrator 17.0.2, SVG Export Plug-In . SVG Version: 6.00 Build 0)  -->
<!DOCTYPE svg PUBLIC "-//W3C//DTD SVG 1.1//EN" "http://www.w3.org/Graphics/SVG/1.1/DTD/svg11.dtd">
<svg version="1.1" id="Layer_1" xmlns="http://www.w3.org/2000/svg" xmlns:xlink="http://www.w3.org/1999/xlink" x="0px" y="0px"
	 width="113.644px" height="87.087px" viewBox="0 0 113.644 87.087" enable-background="new 0 0 113.644 87.087"
	 xml:space="preserve">
<g id="_x38_">
	<g>
		<path fill="#FF0000" d="M80.837,46.976c-0.103-8.31-6.44-11.115-9.037-13.088c1.143-1.143,3.947-0.312,3.116-9.869
			S62.97,11.346,58.919,11.658s-10.542,0.269-14.727,4.986c-6.728,7.583-2.102,16.101,1.015,19.01
			c-1.35,0.831-2.909,1.974-6.337,5.911c-6.804,7.814-3.324,30.031,18.179,29.927C78.552,71.387,80.941,55.286,80.837,46.976z
			 M58.919,21.63c2.49-0.158,4.05,0.727,4.674,2.285c0.624,1.558,0.935,3.948,0.831,5.298c-0.104,1.35,0.448,3.937-2.077,4.525
			c-3.121,0.727-5.714,0.357-7.271-1.721C54.601,31.384,52.375,22.045,58.919,21.63z M66.086,55.909
			c-1.143,1.974-4.589,4.258-7.8,4.155c-3.211-0.104-7.574,0.104-8.405-5.297c-0.831-5.402-0.311-8.103,1.351-10.076
			c1.662-1.974,3.306-2.722,7.055-3.127c2.767-0.299,5.93,1.153,7.28,3.646S67.229,53.936,66.086,55.909z"/>
		<g>
			<path d="M81.362,46.976c-0.242-4.021-1.57-7.194-4.47-10.001c-1.098-1.062-2.434-1.909-3.697-2.753
				c-0.984-0.657-0.062-0.461,0.807-1.179c2.288-1.891,1.602-6.617,1.44-9.025c-0.243-3.616-2.303-7.077-5.256-9.155
				c-6.392-4.498-14.583-4.682-21.753-1.878c-8.691,3.398-9.973,13.821-5.399,20.904c0.655,1.014,1.782,1.295,0.725,2.112
				c-1.964,1.519-3.613,3.34-5.259,5.19c-1.871,2.104-2.722,4.884-3.123,7.614c-0.938,6.391,1.494,12.982,5.97,17.528
				c11.274,11.452,33.502,5.771,38.57-8.929C81.061,54.085,81.379,50.467,81.362,46.976c-0.003-0.677-1.053-0.677-1.05,0
				c0.028,5.989-1.18,11.973-4.959,16.77c-5.737,7.283-17.148,8.49-25.534,6.264c-7.786-2.066-12.699-9.163-13.491-16.907
				c-0.732-7.157,3.214-13.215,9.145-16.996c0.285-0.182,0.351-0.577,0.106-0.825c-5.496-5.566-5.602-13.672-0.01-19.274
				c3.627-3.634,11.093-4.376,16.017-3.656c9.318,1.362,18.68,13.861,9.843,21.164c-0.283,0.234-0.144,0.644,0.106,0.825
				c4.747,3.423,8.394,6.268,8.777,12.635C80.353,47.648,81.403,47.652,81.362,46.976z"/>
			<path d="M58.919,22.155c2.081-0.048,3.654,0.447,4.387,2.519c0.552,1.56,0.644,3.263,0.579,4.9
				c-0.079,1.977-0.04,3.32-2.446,3.816c-1.951,0.402-4.798,0.22-5.953-1.71c-0.653-1.092-0.624-2.906-0.632-4.118
				C54.836,24.858,55.996,22.46,58.919,22.155c0.666-0.07,0.673-1.12,0-1.05c-3.405,0.356-4.902,2.815-5.105,6.048
				c-0.164,2.616,0.231,5.819,3.005,6.902c1.774,0.693,4.629,0.938,6.362-0.05c1.558-0.888,1.759-2.357,1.753-4.029
				c-0.014-4.493-0.597-8.996-6.015-8.871C58.243,21.12,58.242,22.17,58.919,22.155z"/>
			<path d="M65.633,55.644c-2.592,3.729-7.155,4.377-11.313,3.56c-4.859-0.956-4.903-8.307-3.855-12.085
				c1.361-4.908,8.186-6.04,12.156-4.101C66.491,44.908,67.25,52.062,65.633,55.644c-0.276,0.612,0.628,1.146,0.907,0.53
				c1.698-3.764,1.215-11.071-2.581-13.538c-4.494-2.921-11.021-1.765-13.915,2.846c-2.405,3.83-1.603,11.946,2.568,14.237
				c4.488,2.465,11.145,0.459,13.928-3.545C66.927,55.617,66.017,55.093,65.633,55.644z"/>
		</g>
	</g>
</g>
</svg>
