<?xml version="1.0" encoding="utf-8"?>
<!-- Generator: Adobe Illustrator 17.0.2, SVG Export Plug-In . SVG Version: 6.00 Build 0)  -->
<!DOCTYPE svg PUBLIC "-//W3C//DTD SVG 1.1//EN" "http://www.w3.org/Graphics/SVG/1.1/DTD/svg11.dtd">
<svg version="1.1" id="Layer_1" xmlns="http://www.w3.org/2000/svg" xmlns:xlink="http://www.w3.org/1999/xlink" x="0px" y="0px"
	 width="113.644px" height="87.087px" viewBox="0 0 113.644 87.087" enable-background="new 0 0 113.644 87.087"
	 xml:space="preserve">
<g id="_x39_">
	<g>
		<path fill="#FF0000" d="M78.138,34.605c-1.143-17.244-13.089-21.71-25.347-20.048s-13.48,9.775-14.023,12.465
			c-2.182,10.803,0.416,14.75,4.675,18.698s13.712,2.077,18.179,0.312c0.312,1.351,0.312,5.401-2.94,8.726
			c-3.252,3.324-9.837,1.558-14.719,1.974s-6.856,5.817,0.312,11.427c7.168,5.609,16.517,1.558,25.554-2.909
			C78.865,60.782,79.281,51.849,78.138,34.605z M62.244,33.774c-1.039,5.505-8.31,5.402-9.868,2.078s-1.176-7.573,1.038-9.037
			C60.166,22.348,63.283,28.269,62.244,33.774z"/>
		<g>
			<path d="M78.663,34.605c-0.69-7.866-3.763-15.963-11.651-19.1c-7.001-2.784-17.81-2.974-23.814,2.257
				c-5.197,4.528-6.348,12.647-5.516,19.157c0.975,7.623,7.588,11.837,14.771,11.625c2.134-0.063,4.274-0.529,6.336-1.04
				c0.563-0.14,2.386-1.285,2.436-0.006c0.103,2.636-1.289,4.956-2.916,6.889c-3.994,4.743-11.795-0.282-16.509,2.361
				c-8.016,4.494,2.76,13.129,7.722,14.392c4.591,1.169,10.018-0.686,14.17-2.473c3.996-1.721,8.874-3.404,11.594-7.057
				C80.793,54.217,79.211,43.154,78.663,34.605c-0.043-0.672-1.093-0.676-1.05,0c0.477,7.44,1.364,15.572-1.133,22.754
				c-1.187,3.412-3.799,5.792-6.917,7.436c-5.261,2.775-10.988,5.272-16.994,5.573c-3.633,0.182-6.647-1.489-9.322-3.779
				c-2.793-2.391-5.068-7.509-0.144-9.189c3.551-1.211,7.858,0.515,11.542-0.24c5.168-1.06,8.285-6.068,7.484-11.268
				c-0.041-0.267-0.399-0.458-0.646-0.367c-7.713,2.856-16.27,3.355-21.175-4.272c-3.38-5.255-2.119-14.243,0.86-19.575
				c3.951-7.073,14.451-7.701,21.521-6.416c9.717,1.766,14.127,10.229,14.926,19.342C77.672,35.274,78.722,35.28,78.663,34.605z"/>
			<path d="M61.738,33.635c-0.616,2.715-2.793,4.14-5.515,3.983c-3.289-0.19-4.231-3.342-4.266-6.179
				c-0.044-3.535,3.44-6.458,6.96-5.483C61.93,26.789,62.147,31.186,61.738,33.635c-0.111,0.662,0.901,0.946,1.012,0.279
				c0.498-2.981,0.14-7.549-3.204-8.837c-3.734-1.438-7.898,1.434-8.54,5.159c-0.598,3.471,0.697,7.443,4.366,8.309
				c3.393,0.801,6.621-1.297,7.378-4.631C62.9,33.254,61.888,32.974,61.738,33.635z"/>
		</g>
	</g>
</g>
</svg>
