<?xml version="1.0" encoding="utf-8"?>
<!-- Generator: Adobe Illustrator 17.0.2, SVG Export Plug-In . SVG Version: 6.00 Build 0)  -->
<!DOCTYPE svg PUBLIC "-//W3C//DTD SVG 1.1//EN" "http://www.w3.org/Graphics/SVG/1.1/DTD/svg11.dtd">
<svg version="1.1" id="Layer_1" xmlns="http://www.w3.org/2000/svg" xmlns:xlink="http://www.w3.org/1999/xlink" x="0px" y="0px"
	 width="113.644px" height="87.087px" viewBox="0 0 113.644 87.087" enable-background="new 0 0 113.644 87.087"
	 xml:space="preserve">
<g id="base_copy_3">
	<g>
		<path fill="#DCDCDC" d="M19.582,58.097c0,0-1.868,21.678,14.576,26.163s25.414-2.991,29.525-4.859
			c8.596,4.112,27.283,2.531,31.768-7.517c4.485-10.048,1.121-16.403,1.869-17.15c9.718-4.485,17.185-15.52,14.203-22.05
			c-3.815-8.353-6.728-12.707-21.678-11.212C80.875,12.127,74.009,1.857,59.17,2.176C42.861,2.526,36.365,6.52,27.786,18.854
			c-13.437,2.617-20.538,2.99-23.528,9.718S-3.589,51.369,19.582,58.097z"/>
		<g>
			<path d="M18.832,58.097c-1.098,13.768,5.923,26.215,20.357,27.964c8.958,1.085,16.193-1.321,23.916-5.533
				c1.057-0.577,2.933,0.571,4.028,0.865c1.838,0.496,3.765,0.676,5.657,0.814c4.787,0.349,9.707-0.452,14.187-2.127
				c8.691-3.25,12.079-11.925,11.522-20.766c-0.087-1.374-0.426-2.718-0.542-4.087c-0.009-0.11,5.102-3.139,5.827-3.703
				c3.851-2.993,6.877-7.159,8.512-11.738c2.165-6.064-2.065-13.619-7.059-17.049c-3.044-2.091-7.125-2.288-10.679-2.302
				c-4.004-0.015-5.252-0.598-7.928-3.521c-2.101-2.294-4.214-4.566-6.463-6.715C70.446,0.91,57.363-0.419,44.785,3.412
				c-5.056,1.54-9.187,4.799-12.695,8.654c-2.548,2.8-3.82,5.946-7.866,6.703c-3.959,0.741-7.939,1.391-11.812,2.518
				C4.591,23.563,1.559,30.617,0.966,38.23c-0.88,11.309,8.809,17.63,18.416,20.59c0.927,0.286,1.32-1.162,0.399-1.446
				C9.629,54.245,0.998,47.756,2.692,36.18c0.408-2.792,1.389-5.548,2.628-8.072c2.371-4.829,8.692-5.832,13.404-6.788
				c3.078-0.625,6.177-1.151,9.262-1.743c1.035-0.199,3.07-3.921,3.573-4.561c3.377-4.296,7.474-7.792,12.592-9.8
				c12.052-4.728,25.475-2.61,34.955,6.042c1.96,1.788,3.751,3.765,5.547,5.714c1.408,1.528,3.023,4.097,4.813,5.146
				c1.199,0.702,4.982-0.185,6.471-0.179c3.006,0.012,5.934,0.576,8.544,2.092c3.441,2,6.522,7.567,6.944,11.412
				c0.731,6.667-5.925,13.138-10.813,16.577c-2.266,1.594-4.443,1.419-4.015,4.345c0.917,6.272,0.438,13.387-3.975,18.363
				c-3.633,4.096-9.908,5.447-15.093,5.927c-2.629,0.244-5.298,0.09-7.905-0.286c-1.858-0.268-4.193-1.721-5.939-1.721
				c-0.95,0-2.266,1.094-3.061,1.54c-2.34,1.31-4.733,2.437-7.277,3.299c-7.519,2.55-17.235,1.972-24.045-2.214
				c-7.327-4.505-9.61-15.141-8.969-23.178C20.409,57.132,18.908,57.139,18.832,58.097z"/>
		</g>
	</g>
</g>
<g id="_x36__copy">
	<g>
		<path fill="#BEBEBE" d="M50.925,36.629c1.662-3.636,2.389-6.753,6.025-7.895c3.636-1.143,10.18,1.246,12.465-4.467
			c2.285-5.713-0.727-9.558-3.532-10.7c-0.967-0.394-8.311-2.389-17.14,4.051S29.838,36.837,36.798,56.366
			s39.162,16.829,40.928,1.247C79.492,42.03,75.648,32.37,50.925,36.629z M64.326,57.093c-3.74,3.843-11.946,3.012-13.608-1.87
			c-1.662-4.882,2.748-9.471,3.843-10.076c3.947-2.181,7.538-3.157,10.492,0C68.065,48.367,68.065,53.249,64.326,57.093z"/>
		<g>
			<path d="M51.379,36.894c1.53-3.483,2.808-7.38,7.287-7.942c1.71-0.215,3.454,0.025,5.163-0.231
				c4.363-0.653,6.185-3.23,6.872-7.511c1.079-6.715-5.744-9.414-11.129-8.631c-9.382,1.363-17.166,8.448-21.797,16.426
				c-5.195,8.95-4.761,20.352-0.608,29.601c5.663,12.61,25.953,16.195,36.286,7.42c8.924-7.578,7.051-26.249-4.64-29.997
				c-5.715-1.832-12.253-0.844-18.029,0.095c-0.667,0.108-0.383,1.12,0.279,1.012c7.217-1.174,16.922-2.591,22.823,2.916
				c4.625,4.317,4.057,12.57,3.211,18.229c-0.982,6.569-7.991,9.838-13.775,10.959c-7.079,1.372-14.864-0.428-20.462-4.969
				c-7.35-5.963-8.853-17.674-7.272-26.411c1.589-8.782,7.79-15.951,14.96-20.838c3.769-2.569,8.421-3.809,12.95-3.436
				c7.348,0.604,8.523,12.078,1.055,13.973c-3.038,0.771-6.012-0.057-8.979,1.188c-2.896,1.216-3.973,5.044-5.104,7.618
				C50.202,36.977,51.107,37.512,51.379,36.894z"/>
			<path d="M63.954,56.721c-2.615,2.444-6.49,2.845-9.727,1.47c-4.494-1.909-3.697-7.158-1.443-10.483
				c1.939-2.861,6.087-4.627,9.447-3.817c2.36,0.569,3.816,3.149,4.347,5.307C67.266,51.993,65.752,54.73,63.954,56.721
				c-0.452,0.501,0.288,1.246,0.742,0.742c3.638-4.031,4.179-9.389,0.085-13.303c-3.527-3.371-9.764-0.809-12.444,2.41
				c-2.594,3.117-3.915,8.689-0.19,11.542c3.671,2.812,9.189,2.491,12.55-0.65C65.192,57.001,64.448,56.26,63.954,56.721z"/>
		</g>
	</g>
</g>
</svg>
