<?xml version="1.0" encoding="utf-8"?>
<!-- Generator: Adobe Illustrator 16.2.1, SVG Export Plug-In . SVG Version: 6.00 Build 0)  -->
<!DOCTYPE svg PUBLIC "-//W3C//DTD SVG 1.1//EN" "http://www.w3.org/Graphics/SVG/1.1/DTD/svg11.dtd">
<svg version="1.1" id="Layer_1" xmlns="http://www.w3.org/2000/svg" xmlns:xlink="http://www.w3.org/1999/xlink" x="0px" y="0px"
	 width="320px" height="320px" viewBox="0 0 320 320" enable-background="new 0 0 320 320" xml:space="preserve">
<g>
	<g>
		<g>
			<radialGradient id="SVGID_1_" cx="160" cy="285.9844" r="174.3721" gradientUnits="userSpaceOnUse">
				<stop  offset="0" style="stop-color:#FDF38B"/>
				<stop  offset="0.3132" style="stop-color:#FCEF57"/>
				<stop  offset="1" style="stop-color:#FAA819"/>
			</radialGradient>
			<path fill="url(#SVGID_1_)" d="M159.999,304.557c-79.71,0-144.558-64.848-144.558-144.557
				c0-79.71,64.848-144.558,144.558-144.558C239.712,15.442,304.56,80.29,304.56,160
				C304.56,239.709,239.712,304.557,159.999,304.557z"/>
			<path fill="#D78128" d="M159.999,18.519c78.013,0,141.484,63.469,141.484,141.481c0,78.012-63.472,141.481-141.484,141.481
				S18.517,238.012,18.517,160C18.517,81.987,81.986,18.519,159.999,18.519 M159.999,12.367C78.457,12.367,12.365,78.47,12.365,160
				c0,81.541,66.092,147.633,147.634,147.633c81.545,0,147.636-66.092,147.636-147.633C307.635,78.47,241.544,12.367,159.999,12.367
				L159.999,12.367z"/>
		</g>
		<g>
			<linearGradient id="SVGID_2_" gradientUnits="userSpaceOnUse" x1="159.998" y1="12.0059" x2="159.998" y2="208.7832">
				<stop  offset="0" style="stop-color:#FFFFFF"/>
				<stop  offset="1" style="stop-color:#000000"/>
			</linearGradient>
			<path fill="url(#SVGID_2_)" d="M159.999,36.984c72.546,0,131.933,57.404,135.165,129.179c0.096-2.043,0.156-4.098,0.156-6.163
				c0-74.609-60.709-135.33-135.321-135.33C85.383,24.67,24.675,85.391,24.675,160c0,2.065,0.06,4.12,0.155,6.163
				C28.062,94.389,87.449,36.984,159.999,36.984z"/>
		</g>
		<g>
			<linearGradient id="SVGID_3_" gradientUnits="userSpaceOnUse" x1="160.001" y1="19.8882" x2="160.001" y2="216.5696">
				<stop  offset="0" style="stop-color:#FFFFFF"/>
				<stop  offset="1" style="stop-color:#000000"/>
			</linearGradient>
			<path fill="url(#SVGID_3_)" d="M159.999,180.315c51.305,0,98.341-11.99,134.805-31.838
				C288.929,79.239,230.73,24.67,159.999,24.67c-70.729,0-128.927,54.569-134.802,123.808
				C61.661,168.325,108.697,180.315,159.999,180.315z"/>
		</g>
	</g>
	<linearGradient id="SVGID_4_" gradientUnits="userSpaceOnUse" x1="120.8193" y1="103.0322" x2="192.1348" y2="226.5542">
		<stop  offset="0.0161" style="stop-color:#AEB0B3"/>
		<stop  offset="0.5806" style="stop-color:#383738"/>
		<stop  offset="1" style="stop-color:#231F20"/>
	</linearGradient>
	<path fill="url(#SVGID_4_)" stroke="#404041" stroke-width="3" stroke-miterlimit="10" d="M219.869,196.963h0.13V91.622
		l0.047-0.354l-0.047,0.007v-0.007l-0.109,0.021l-102.493,13.723l-0.007,0.001v83.233c-4.057-1.298-8.623-1.821-13.383-1.359
		c-15.058,1.462-26.338,12.183-25.197,23.944c1.145,11.765,14.274,20.117,29.332,18.654c15.06-1.462,26.341-12.183,25.197-23.946
		c-0.021-0.2-0.069-0.391-0.096-0.589h0.128v-72.2l70.646-10.315v57.818c-4.058-1.297-8.621-1.821-13.383-1.357
		c-15.059,1.464-26.339,12.185-25.197,23.946c1.144,11.764,14.274,20.116,29.33,18.654c15.062-1.462,26.341-12.183,25.197-23.946
		C219.945,197.35,219.896,197.16,219.869,196.963z"/>
</g>
</svg>
